<svg xmlns="http://www.w3.org/2000/svg" xmlns:xlink="http://www.w3.org/1999/xlink" contentStyleType="text/css" height="242px" preserveAspectRatio="none" style="width:1167px;height:242px;background:#F5F5F5;" version="1.1" viewBox="0 0 1167 242" width="1167px" zoomAndPan="magnify"><defs/><g><rect fill="#F5F5F5" height="242" style="stroke:none;stroke-width:1.0;" width="1167" x="0" y="0"/><!--cluster App--><g id="cluster_App"><rect fill="none" height="92.1" rx="2.5" ry="2.5" style="stroke:#181818;stroke-width:1.0;" width="1154" x="7" y="144.8"/><text fill="#000000" font-family="sans-serif" font-size="14" font-weight="bold" lengthAdjust="spacing" textLength="30.8779" x="568.561" y="159.7951">App</text></g><g id="elem_UC1"><ellipse cx="95.9982" cy="200.3536" fill="#F1F1F1" rx="73.0682" ry="17.0136" style="stroke:#181818;stroke-width:0.5;"/><text fill="#000000" font-family="sans-serif" font-size="14" lengthAdjust="spacing" textLength="101.001" x="42.4977" y="204.1012">Register/Login</text></g><g id="elem_UC2"><ellipse cx="290.9983" cy="200.3537" fill="#F1F1F1" rx="87.2683" ry="19.8537" style="stroke:#181818;stroke-width:0.5;"/><text fill="#000000" font-family="sans-serif" font-size="14" lengthAdjust="spacing" textLength="135.5293" x="223.2337" y="203.2003">View Nearby Shops</text></g><g id="elem_UC3"><ellipse cx="491.9982" cy="200.3496" fill="#F1F1F1" rx="78.9982" ry="18.1996" style="stroke:#181818;stroke-width:0.5;"/><text fill="#000000" font-family="sans-serif" font-size="14" lengthAdjust="spacing" textLength="116.0811" x="431.9055" y="203.8415">View Shop Menu</text></g><g id="elem_UC4"><ellipse cx="679.9975" cy="200.3535" fill="#F1F1F1" rx="74.0675" ry="17.2135" style="stroke:#181818;stroke-width:0.5;"/><text fill="#000000" font-family="sans-serif" font-size="14" lengthAdjust="spacing" textLength="103.6055" x="625.1948" y="204.1011">Place an Order</text></g><g id="elem_UC5"><ellipse cx="879.9978" cy="200.3496" fill="#F1F1F1" rx="90.7478" ry="20.5496" style="stroke:#181818;stroke-width:0.5;"/><text fill="#000000" font-family="sans-serif" font-size="14" lengthAdjust="spacing" textLength="143.4316" x="808.282" y="203.1962">View Queue Position</text></g><g id="elem_UC6"><ellipse cx="1075.0019" cy="200.3524" fill="#F1F1F1" rx="69.6619" ry="16.3324" style="stroke:#181818;stroke-width:0.5;"/><text fill="#000000" font-family="sans-serif" font-size="14" lengthAdjust="spacing" textLength="91.9092" x="1026.0473" y="204.0999">Cancel Order</text></g><!--entity Customer--><g id="elem_Customer"><ellipse cx="576.002" cy="14" fill="#F1F1F1" rx="8" ry="8" style="stroke:#181818;stroke-width:0.5;"/><path d="M576.002,22 L576.002,49 M563.002,30 L589.002,30 M576.002,49 L563.002,64 M576.002,49 L589.002,64 " fill="none" style="stroke:#181818;stroke-width:0.5;"/><text fill="#000000" font-family="sans-serif" font-size="14" lengthAdjust="spacing" textLength="68.0039" x="542" y="78.4951">Customer</text></g><!--link Customer to UC1--><g id="link_Customer_UC1"><path d="M541.66,46.99 C471.17,53 306.65,73.26 186,136.8 C160.24,150.37 137.8662,166.3894 120.2162,180.0394 " fill="none" id="Customer-to-UC1" style="stroke:#2C3E50;stroke-width:1.0;"/><polygon fill="#2C3E50" points="115.47,183.71,125.0364,181.3683,119.4252,180.6512,120.1423,175.0399,115.47,183.71" style="stroke:#2C3E50;stroke-width:1.0;"/><text fill="#000000" font-family="sans-serif" font-size="13" lengthAdjust="spacing" textLength="93.7866" x="237" y="124.8669">Register/Login</text></g><!--link Customer to UC2--><g id="link_Customer_UC2"><path d="M541.66,50.98 C500.01,59.79 428.84,78.52 376,111.8 C346.78,130.2 324.0011,155.9297 308.6211,175.6397 " fill="none" id="Customer-to-UC2" style="stroke:#2C3E50;stroke-width:1.0;"/><polygon fill="#2C3E50" points="304.93,180.37,313.6202,175.7353,308.0059,176.4281,307.3131,170.8138,304.93,180.37" style="stroke:#2C3E50;stroke-width:1.0;"/><text fill="#000000" font-family="sans-serif" font-size="13" lengthAdjust="spacing" textLength="125.8486" x="377" y="124.8669">View Nearby Shops</text></g><!--link Customer to UC3--><g id="link_Customer_UC3"><path d="M541.65,78.78 C532.99,88.79 524.36,100.18 518,111.8 C505.67,134.34 499.6913,157.5215 496.1113,175.8315 " fill="none" id="Customer-to-UC3" style="stroke:#2C3E50;stroke-width:1.0;"/><polygon fill="#2C3E50" points="494.96,181.72,500.6127,173.6548,495.9194,176.8129,492.7613,172.1197,494.96,181.72" style="stroke:#2C3E50;stroke-width:1.0;"/><text fill="#000000" font-family="sans-serif" font-size="13" lengthAdjust="spacing" textLength="107.7896" x="519" y="124.8669">View Shop Menu</text></g><!--link Customer to UC4--><g id="link_Customer_UC4"><path d="M608.62,82.1 C616.29,91.55 624.21,101.84 631,111.8 C647.19,135.55 660.1505,159.6966 669.2505,177.6766 " fill="none" id="Customer-to-UC4" style="stroke:#2C3E50;stroke-width:1.0;"/><polygon fill="#2C3E50" points="671.96,183.03,671.4648,173.1936,669.7021,178.5688,664.3269,176.8062,671.96,183.03" style="stroke:#2C3E50;stroke-width:1.0;"/><text fill="#000000" font-family="sans-serif" font-size="13" lengthAdjust="spacing" textLength="96.2051" x="643" y="124.8669">Place an Order</text></g><!--link Customer to UC5--><g id="link_Customer_UC5"><path d="M610.23,55.59 C645.63,67.46 702.05,87.94 748,111.8 C787.05,132.08 824.0139,157.6587 849.8739,176.6487 " fill="none" id="Customer-to-UC5" style="stroke:#2C3E50;stroke-width:1.0;"/><polygon fill="#2C3E50" points="854.71,180.2,849.8234,171.6489,850.6799,177.2405,845.0883,178.0971,854.71,180.2" style="stroke:#2C3E50;stroke-width:1.0;"/><text fill="#000000" font-family="sans-serif" font-size="13" lengthAdjust="spacing" textLength="133.1865" x="780" y="124.8669">View Queue Position</text></g><!--link Customer to UC6--><g id="link_Customer_UC6"><path d="M610.45,46.15 C684.05,50.62 860.3,68.24 988,136.8 C1013.4,150.44 1035.2704,166.7224 1052.2504,180.4224 " fill="none" id="Customer-to-UC6" style="stroke:#2C3E50;stroke-width:1.0;"/><polygon fill="#2C3E50" points="1056.92,184.19,1052.4273,175.4255,1053.0287,181.0503,1047.4039,181.6517,1056.92,184.19" style="stroke:#2C3E50;stroke-width:1.0;"/><text fill="#000000" font-family="sans-serif" font-size="13" lengthAdjust="spacing" textLength="85.3442" x="968" y="124.8669">Cancel Order</text></g><!--SRC=[TP3BJiCm44Nt_efHMLSqhugoG6f3ik9HgChUTKV1Qcf7VgW2nB-3IPhMJh4tripndRbNxxXegA9xs52sgvIqOflBMYguAZDtYUu9gv5HZV15uFVCbPA73etpfCWcRPaPgHPIRL7zrmm79Udivdvn0aefp8f_8aJfNt7TplL4apITPONN3cMBl9oKqJdYX8TBdJNRgJ7v9eIwJI2tsiWzAg2wVnEYa1aggXfXtZHT7CTmHgzOSMrGNJ_8YekH-xdE8vzvutY09wHgym6hTzde3eilOAuFZoXinoG-iwmfGw02dbqw7PDUq7cnQ16MKdF3vN6lp0TpAXZMdjJKXT77C1xVEJTmE_0PCh5ZXZv3BEcnay-GIHqJ-0oPhDS9V8RWr86Upny0]--></g></svg>