<?xml version="1.0" encoding="us-ascii" standalone="no"?><svg xmlns="http://www.w3.org/2000/svg" xmlns:xlink="http://www.w3.org/1999/xlink" contentStyleType="text/css" height="434px" preserveAspectRatio="none" style="width:417px;height:434px;background:#F5F5F5;" version="1.1" viewBox="0 0 417 434" width="417px" zoomAndPan="magnify"><defs/><g><rect fill="#F5F5F5" height="434" style="stroke:none;stroke-width:1.0;" width="417" x="0" y="0"/><!--class tb_customer--><g id="elem_tb_customer"><rect codeLine="8" fill="#ECF0F1" height="130.4414" id="tb_customer" rx="2.5" ry="2.5" style="stroke:#2C3E50;stroke-width:0.5;" width="187" x="7" y="31.73"/><ellipse cx="53.75" cy="47.73" fill="#ADD1B2" rx="11" ry="11" style="stroke:#181818;stroke-width:1.0;"/><path d="M56.7231,53.3731 Q56.1421,53.6719 55.5029,53.8213 Q54.8638,53.9707 54.1582,53.9707 Q51.6514,53.9707 50.3315,52.3189 Q49.0117,50.667 49.0117,47.5459 Q49.0117,44.4165 50.3315,42.7647 Q51.6514,41.1128 54.1582,41.1128 Q54.8638,41.1128 55.5112,41.2622 Q56.1587,41.4116 56.7231,41.7105 L56.7231,44.4331 Q56.0923,43.8521 55.4988,43.5823 Q54.9053,43.3125 54.2744,43.3125 Q52.9297,43.3125 52.2449,44.3792 Q51.5601,45.4458 51.5601,47.5459 Q51.5601,49.6377 52.2449,50.7044 Q52.9297,51.771 54.2744,51.771 Q54.9053,51.771 55.4988,51.5012 Q56.0923,51.2315 56.7231,50.6504 Z " fill="#000000"/><text fill="#2C3E50" font-family="sans-serif" font-size="14" lengthAdjust="spacing" textLength="85" x="74.25" y="53.021">tb_customer</text><line style="stroke:#2C3E50;stroke-width:0.5;" x1="8" x2="193" y1="63.73" y2="63.73"/><ellipse cx="18" cy="77.4741" fill="none" rx="3" ry="3" style="stroke:#038048;stroke-width:1.0;"/><text fill="#000000" font-family="sans-serif" font-size="14" lengthAdjust="spacing" textLength="130" x="27" y="81.2652">customer_id : UUID</text><ellipse cx="18" cy="93.9624" fill="none" rx="3" ry="3" style="stroke:#038048;stroke-width:1.0;"/><text fill="#000000" font-family="sans-serif" font-size="14" lengthAdjust="spacing" textLength="91" x="27" y="97.7534">name : String</text><ellipse cx="18" cy="110.4507" fill="none" rx="3" ry="3" style="stroke:#038048;stroke-width:1.0;"/><text fill="#000000" font-family="sans-serif" font-size="14" lengthAdjust="spacing" textLength="161" x="27" y="114.2417">mobile_number : String</text><ellipse cx="18" cy="126.939" fill="none" rx="3" ry="3" style="stroke:#038048;stroke-width:1.0;"/><text fill="#000000" font-family="sans-serif" font-size="14" lengthAdjust="spacing" textLength="107" x="27" y="130.73">address : String</text><ellipse cx="18" cy="143.4273" fill="none" rx="3" ry="3" style="stroke:#038048;stroke-width:1.0;"/><text fill="#000000" font-family="sans-serif" font-size="14" lengthAdjust="spacing" textLength="145" x="27" y="147.2183">order_history : String</text><line style="stroke:#2C3E50;stroke-width:0.5;" x1="8" x2="193" y1="154.1714" y2="154.1714"/></g><!--class tb_shop--><g id="elem_tb_shop"><rect codeLine="16" fill="#ECF0F1" height="179.9063" id="tb_shop" rx="2.5" ry="2.5" style="stroke:#2C3E50;stroke-width:0.5;" width="181" x="229" y="7"/><ellipse cx="287.75" cy="23" fill="#ADD1B2" rx="11" ry="11" style="stroke:#181818;stroke-width:1.0;"/><path d="M290.7231,28.6431 Q290.1421,28.9419 289.5029,29.0913 Q288.8638,29.2407 288.1582,29.2407 Q285.6514,29.2407 284.3315,27.5889 Q283.0117,25.937 283.0117,22.8159 Q283.0117,19.6865 284.3315,18.0347 Q285.6514,16.3828 288.1582,16.3828 Q288.8638,16.3828 289.5112,16.5322 Q290.1587,16.6816 290.7231,16.9805 L290.7231,19.7031 Q290.0923,19.1221 289.4988,18.8523 Q288.9053,18.5825 288.2744,18.5825 Q286.9297,18.5825 286.2449,19.6492 Q285.5601,20.7158 285.5601,22.8159 Q285.5601,24.9077 286.2449,25.9744 Q286.9297,27.041 288.2744,27.041 Q288.9053,27.041 289.4988,26.7712 Q290.0923,26.5015 290.7231,25.9204 Z " fill="#000000"/><text fill="#2C3E50" font-family="sans-serif" font-size="14" lengthAdjust="spacing" textLength="55" x="308.25" y="28.291">tb_shop</text><line style="stroke:#2C3E50;stroke-width:0.5;" x1="230" x2="409" y1="39" y2="39"/><ellipse cx="240" cy="52.7441" fill="none" rx="3" ry="3" style="stroke:#038048;stroke-width:1.0;"/><text fill="#000000" font-family="sans-serif" font-size="14" lengthAdjust="spacing" textLength="100" x="249" y="56.5352">shop_id : UUID</text><ellipse cx="240" cy="69.2324" fill="none" rx="3" ry="3" style="stroke:#038048;stroke-width:1.0;"/><text fill="#000000" font-family="sans-serif" font-size="14" lengthAdjust="spacing" textLength="91" x="249" y="73.0234">name : String</text><ellipse cx="240" cy="85.7207" fill="none" rx="3" ry="3" style="stroke:#038048;stroke-width:1.0;"/><text fill="#000000" font-family="sans-serif" font-size="14" lengthAdjust="spacing" textLength="107" x="249" y="89.5117">address : String</text><ellipse cx="240" cy="102.209" fill="none" rx="3" ry="3" style="stroke:#038048;stroke-width:1.0;"/><text fill="#000000" font-family="sans-serif" font-size="14" lengthAdjust="spacing" textLength="105" x="249" y="106">latitude : String</text><ellipse cx="240" cy="118.6973" fill="none" rx="3" ry="3" style="stroke:#038048;stroke-width:1.0;"/><text fill="#000000" font-family="sans-serif" font-size="14" lengthAdjust="spacing" textLength="119" x="249" y="122.4883">longitude : String</text><ellipse cx="240" cy="135.1855" fill="none" rx="3" ry="3" style="stroke:#038048;stroke-width:1.0;"/><text fill="#000000" font-family="sans-serif" font-size="14" lengthAdjust="spacing" textLength="155" x="249" y="138.9766">contact_details : String</text><ellipse cx="240" cy="151.6738" fill="none" rx="3" ry="3" style="stroke:#038048;stroke-width:1.0;"/><text fill="#000000" font-family="sans-serif" font-size="14" lengthAdjust="spacing" textLength="92" x="249" y="155.4648">menu : String</text><ellipse cx="240" cy="168.1621" fill="none" rx="3" ry="3" style="stroke:#038048;stroke-width:1.0;"/><text fill="#000000" font-family="sans-serif" font-size="14" lengthAdjust="spacing" textLength="144" x="249" y="171.9531">queue_status : String</text><line style="stroke:#2C3E50;stroke-width:0.5;" x1="230" x2="409" y1="178.9063" y2="178.9063"/></g><!--class tb_order--><g id="elem_tb_order"><rect codeLine="27" fill="#ECF0F1" height="163.418" id="tb_order" rx="2.5" ry="2.5" style="stroke:#2C3E50;stroke-width:0.5;" width="204" x="107.5" y="263.9"/><ellipse cx="175.75" cy="279.9" fill="#ADD1B2" rx="11" ry="11" style="stroke:#181818;stroke-width:1.0;"/><path d="M178.7231,285.5431 Q178.1421,285.8419 177.5029,285.9913 Q176.8638,286.1407 176.1582,286.1407 Q173.6514,286.1407 172.3315,284.4889 Q171.0117,282.837 171.0117,279.7159 Q171.0117,276.5865 172.3315,274.9347 Q173.6514,273.2828 176.1582,273.2828 Q176.8638,273.2828 177.5112,273.4322 Q178.1587,273.5816 178.7231,273.8805 L178.7231,276.6031 Q178.0923,276.0221 177.4988,275.7523 Q176.9053,275.4825 176.2744,275.4825 Q174.9297,275.4825 174.2449,276.5492 Q173.5601,277.6158 173.5601,279.7159 Q173.5601,281.8077 174.2449,282.8744 Q174.9297,283.941 176.2744,283.941 Q176.9053,283.941 177.4988,283.6712 Q178.0923,283.4015 178.7231,282.8204 Z " fill="#000000"/><text fill="#2C3E50" font-family="sans-serif" font-size="14" lengthAdjust="spacing" textLength="59" x="196.25" y="285.191">tb_order</text><line style="stroke:#2C3E50;stroke-width:0.5;" x1="108.5" x2="310.5" y1="295.9" y2="295.9"/><ellipse cx="118.5" cy="309.6441" fill="none" rx="3" ry="3" style="stroke:#038048;stroke-width:1.0;"/><text fill="#000000" font-family="sans-serif" font-size="14" lengthAdjust="spacing" textLength="104" x="127.5" y="313.4352">order_id : UUID</text><ellipse cx="118.5" cy="326.1324" fill="none" rx="3" ry="3" style="stroke:#038048;stroke-width:1.0;"/><text fill="#000000" font-family="sans-serif" font-size="14" lengthAdjust="spacing" textLength="130" x="127.5" y="329.9234">customer_id : UUID</text><ellipse cx="118.5" cy="342.6207" fill="none" rx="3" ry="3" style="stroke:#038048;stroke-width:1.0;"/><text fill="#000000" font-family="sans-serif" font-size="14" lengthAdjust="spacing" textLength="100" x="127.5" y="346.4117">shop_id : UUID</text><ellipse cx="118.5" cy="359.109" fill="none" rx="3" ry="3" style="stroke:#038048;stroke-width:1.0;"/><text fill="#000000" font-family="sans-serif" font-size="14" lengthAdjust="spacing" textLength="136" x="127.5" y="362.9">menu_items : String</text><ellipse cx="118.5" cy="375.5973" fill="none" rx="3" ry="3" style="stroke:#038048;stroke-width:1.0;"/><text fill="#000000" font-family="sans-serif" font-size="14" lengthAdjust="spacing" textLength="139" x="127.5" y="379.3883">order_status : String</text><ellipse cx="118.5" cy="392.0855" fill="none" rx="3" ry="3" style="stroke:#038048;stroke-width:1.0;"/><text fill="#000000" font-family="sans-serif" font-size="14" lengthAdjust="spacing" textLength="136" x="127.5" y="395.8766">queue_position : Int</text><ellipse cx="118.5" cy="408.5738" fill="none" rx="3" ry="3" style="stroke:#038048;stroke-width:1.0;"/><text fill="#000000" font-family="sans-serif" font-size="14" lengthAdjust="spacing" textLength="178" x="127.5" y="412.3648">estimate_waiting_time: Int</text><line style="stroke:#2C3E50;stroke-width:0.5;" x1="108.5" x2="310.5" y1="419.318" y2="419.318"/></g><!--link tb_customer to tb_order--><g id="link_tb_customer_tb_order"><path codeLine="37" d="M129,162.43 C142.68,193.41 156.8056,225.3616 171.3256,258.2316 " fill="none" id="tb_customer-to-tb_order" style="stroke:#181818;stroke-width:1.0;"/><polygon fill="#181818" points="173.75,263.72,173.7723,253.8712,171.7296,259.1464,166.4544,257.1037,173.75,263.72" style="stroke:#181818;stroke-width:1.0;"/><text fill="#000000" font-family="sans-serif" font-size="13" lengthAdjust="spacing" textLength="40" x="159.27" y="230.4684">places</text><text fill="#000000" font-family="sans-serif" font-size="13" lengthAdjust="spacing" textLength="8" x="123.5266" y="182.5404">1</text><text fill="#000000" font-family="sans-serif" font-size="13" lengthAdjust="spacing" textLength="22" x="147.4402" y="253.0621">0..*</text></g><!--link tb_shop to tb_order--><g id="link_tb_shop_tb_order"><path codeLine="38" d="M279.63,187.35 C268.5,212.3 258.9247,233.7907 248.0247,258.2207 " fill="none" id="tb_shop-to-tb_order" style="stroke:#181818;stroke-width:1.0;"/><polygon fill="#181818" points="245.58,263.7,252.9,257.1108,247.6173,259.1339,245.5942,253.8512,245.58,263.7" style="stroke:#181818;stroke-width:1.0;"/><text fill="#000000" font-family="sans-serif" font-size="13" lengthAdjust="spacing" textLength="51" x="265.5" y="230.4684">receives</text><text fill="#000000" font-family="sans-serif" font-size="13" lengthAdjust="spacing" textLength="8" x="268.2712" y="207.4255">1</text><text fill="#000000" font-family="sans-serif" font-size="13" lengthAdjust="spacing" textLength="22" x="225.8921" y="253.0403">0..*</text></g><!--SRC=[ZLBBJiCm4BpdAwnm0xLgGRtqm87GI3sZdgsDlKgj-X7iDGWX_XtdqGTf8-6SF3FQdPau79Hjm8DX5OX3xLsqid3QUNPNhjel2oU5q102-yvOEYzZzQOe5-MovvoNw0VyiNZQh1OTNZfBVz6VBEk7KiL53EGC-c710pi2N4csPhlTzdKWB1XCo1jvPUi1CwvI6hcDfaeZHYH8wJ5j6S6TJRvNQOt_EfENfiBUDIT3xULVPYRsQI15KLx9jRFrJKAama0GbqYWzDKyWpQEiVU84NaWe1XkH-fIdpBr7On3JLP_iuBM1rU4PgBXiPjBfuqBYfIpYTrQ6YWCf0mGyaz8fArvkc8lI4aktqg-pDbiziponNn-dv_ZhLcZGM38ZlzmMkXHeFh0y0i0]--></g></svg>