<svg xmlns="http://www.w3.org/2000/svg" xmlns:xlink="http://www.w3.org/1999/xlink" contentStyleType="text/css" height="489px" preserveAspectRatio="none" style="width:1157px;height:489px;background:#F5F5F5;" version="1.1" viewBox="0 0 1157 489" width="1157px" zoomAndPan="magnify"><defs/><g><rect fill="#F5F5F5" height="489" style="stroke:none;stroke-width:1.0;" width="1157" x="0" y="0"/><!--cluster Mobile Applications--><g id="cluster_Mobile Applications"><rect fill="#ECF0F1" height="84.3" rx="2.5" ry="2.5" style="stroke:#34495E;stroke-width:1.0;" width="422" x="531.88" y="144.8"/><text fill="#2C3E50" font-family="sans-serif" font-size="12" font-weight="bold" lengthAdjust="spacing" textLength="133.002" x="676.379" y="157.9387">Mobile Applications</text></g><!--cluster Backend Services--><g id="cluster_Backend Services"><rect fill="#ECF0F1" height="205.74" rx="2.5" ry="2.5" style="stroke:#34495E;stroke-width:1.0;" width="708" x="192.88" y="278.1"/><text fill="#2C3E50" font-family="sans-serif" font-size="12" font-weight="bold" lengthAdjust="spacing" textLength="118.8164" x="487.4718" y="291.2387">Backend Services</text></g><!--entity CustomerApp--><g id="elem_CustomerApp"><rect fill="#F1F1F1" height="36.2969" rx="2.5" ry="2.5" style="stroke:#181818;stroke-width:0.5;" width="218.126" x="719.82" y="176.8"/><text fill="#000000" font-family="sans-serif" font-size="14" lengthAdjust="spacing" textLength="198.126" x="729.82" y="199.7951">Customer App (iOS/Android)</text></g><!--entity ShopApp--><g id="elem_ShopApp"><rect fill="#F1F1F1" height="36.2969" rx="2.5" ry="2.5" style="stroke:#181818;stroke-width:0.5;" width="136.8877" x="547.44" y="176.8"/><text fill="#000000" font-family="sans-serif" font-size="14" lengthAdjust="spacing" textLength="116.8877" x="557.44" y="199.7951">Coffee Shop App</text></g><!--entity APIGateway--><g id="elem_APIGateway"><rect fill="#F1F1F1" height="36.2969" rx="2.5" ry="2.5" style="stroke:#181818;stroke-width:0.5;" width="108.4434" x="511.66" y="310.1"/><text fill="#000000" font-family="sans-serif" font-size="14" lengthAdjust="spacing" textLength="88.4434" x="521.66" y="333.0951">API Gateway</text></g><!--entity DB--><g id="elem_DB"><rect fill="#F1F1F1" height="36.2969" rx="2.5" ry="2.5" style="stroke:#181818;stroke-width:0.5;" width="86.8008" x="208.48" y="431.54"/><text fill="#000000" font-family="sans-serif" font-size="14" lengthAdjust="spacing" textLength="66.8008" x="218.48" y="454.5351">Database</text></g><!--entity Auth--><g id="elem_Auth"><rect fill="#F1F1F1" height="36.2969" rx="2.5" ry="2.5" style="stroke:#181818;stroke-width:0.5;" width="109.0039" x="330.38" y="431.54"/><text fill="#000000" font-family="sans-serif" font-size="14" lengthAdjust="spacing" textLength="89.0039" x="340.38" y="454.5351">Auth Service</text></g><!--entity Queue--><g id="elem_Queue"><rect fill="#F1F1F1" height="36.2969" rx="2.5" ry="2.5" style="stroke:#181818;stroke-width:0.5;" width="218.8574" x="666.46" y="431.54"/><text fill="#000000" font-family="sans-serif" font-size="14" lengthAdjust="spacing" textLength="198.8574" x="676.46" y="454.5351">Queue Management Service</text></g><!--entity Notification--><g id="elem_Notification"><rect fill="#F1F1F1" height="36.2969" rx="2.5" ry="2.5" style="stroke:#181818;stroke-width:0.5;" width="156.5205" x="474.62" y="431.54"/><text fill="#000000" font-family="sans-serif" font-size="14" lengthAdjust="spacing" textLength="136.5205" x="484.62" y="454.5351">Notification Service</text></g><!--entity Customer--><g id="elem_Customer"><ellipse cx="828.882" cy="14" fill="#F1F1F1" rx="8" ry="8" style="stroke:#181818;stroke-width:0.5;"/><path d="M828.882,22 L828.882,49 M815.882,30 L841.882,30 M828.882,49 L815.882,64 M828.882,49 L841.882,64 " fill="none" style="stroke:#181818;stroke-width:0.5;"/><text fill="#000000" font-family="sans-serif" font-size="14" lengthAdjust="spacing" textLength="68.0039" x="794.88" y="78.4951">Customer</text></g><!--entity ShopOwner--><g id="elem_ShopOwner"><ellipse cx="615.887" cy="14" fill="#F1F1F1" rx="8" ry="8" style="stroke:#181818;stroke-width:0.5;"/><path d="M615.887,22 L615.887,49 M602.887,30 L628.887,30 M615.887,49 L602.887,64 M615.887,49 L628.887,64 " fill="none" style="stroke:#181818;stroke-width:0.5;"/><text fill="#000000" font-family="sans-serif" font-size="14" lengthAdjust="spacing" textLength="85.374" x="573.2" y="78.4951">Shop Owner</text></g><!--entity Geolocation--><g id="elem_Geolocation"><rect fill="#F1F1F1" height="52.5938" rx="2.5" ry="2.5" style="stroke:#181818;stroke-width:0.5;" width="159.7676" x="7" y="423.39"/><text fill="#000000" font-family="sans-serif" font-size="14" lengthAdjust="spacing" textLength="139.7676" x="17" y="446.3851">Geolocation Service</text><text fill="#000000" font-family="sans-serif" font-size="14" lengthAdjust="spacing" textLength="128.1807" x="17" y="462.682">(Google Maps API)</text></g><!--link Customer to CustomerApp--><g id="link_Customer_CustomerApp"><path d="M828.88,81.94 C828.88,112.17 828.88,147.41 828.88,170.48 " fill="none" id="Customer-to-CustomerApp" style="stroke:#181818;stroke-width:1.0;"/><polygon fill="#181818" points="828.88,176.48,832.88,167.48,828.88,171.48,824.88,167.48,828.88,176.48" style="stroke:#181818;stroke-width:1.0;"/><text fill="#000000" font-family="sans-serif" font-size="13" lengthAdjust="spacing" textLength="89.21" x="829.88" y="124.8669">Interacts with</text></g><!--link ShopOwner to ShopApp--><g id="link_ShopOwner_ShopApp"><path d="M615.88,81.94 C615.88,112.17 615.88,147.41 615.88,170.48 " fill="none" id="ShopOwner-to-ShopApp" style="stroke:#181818;stroke-width:1.0;"/><polygon fill="#181818" points="615.88,176.48,619.88,167.48,615.88,171.48,611.88,167.48,615.88,176.48" style="stroke:#181818;stroke-width:1.0;"/><text fill="#000000" font-family="sans-serif" font-size="13" lengthAdjust="spacing" textLength="104.2095" x="616.88" y="124.8669">Manages orders</text></g><!--link CustomerApp to APIGateway--><g id="link_CustomerApp_APIGateway"><path d="M793.69,213.52 C743.3,238.68 656.5183,282.0001 606.2383,307.1001 " fill="none" id="CustomerApp-to-APIGateway" style="stroke:#181818;stroke-width:1.0;"/><polygon fill="#181818" points="600.87,309.78,610.709,309.3391,605.3436,307.5468,607.1358,302.1814,600.87,309.78" style="stroke:#181818;stroke-width:1.0;"/><text fill="#000000" font-family="sans-serif" font-size="13" lengthAdjust="spacing" textLength="53.8091" x="728.88" y="258.1669">API calls</text></g><!--link ShopApp to APIGateway--><g id="link_ShopApp_APIGateway"><path d="M609.24,213.38 C599.68,238.5 584.2658,278.983 574.6858,304.133 " fill="none" id="ShopApp-to-APIGateway" style="stroke:#181818;stroke-width:1.0;"/><polygon fill="#181818" points="572.55,309.74,579.4917,302.7534,574.3298,305.0675,572.0157,299.9056,572.55,309.74" style="stroke:#181818;stroke-width:1.0;"/><text fill="#000000" font-family="sans-serif" font-size="13" lengthAdjust="spacing" textLength="53.8091" x="596.88" y="258.1669">API calls</text></g><!--link APIGateway to Auth--><g id="link_APIGateway_Auth"><path d="M511.72,346.87 C492.56,354.41 471.43,364.3 453.88,376.39 C431.6,391.76 414.5985,410.5551 401.7885,426.5651 " fill="none" id="APIGateway-to-Auth" style="stroke:#181818;stroke-width:1.0;"/><polygon fill="#181818" points="398.04,431.25,406.7861,426.7216,401.1638,427.3459,400.5395,421.7236,398.04,431.25" style="stroke:#181818;stroke-width:1.0;"/><text fill="#000000" font-family="sans-serif" font-size="13" lengthAdjust="spacing" textLength="95.4307" x="454.88" y="389.4569">Authentication</text></g><!--link APIGateway to DB--><g id="link_APIGateway_DB"><path d="M511.41,331.99 C438.83,336.67 315.54,348.56 280.88,376.39 C264.12,389.86 258.0456,408.5836 255.0556,425.3136 " fill="none" id="APIGateway-to-DB" style="stroke:#181818;stroke-width:1.0;"/><polygon fill="#181818" points="254,431.22,259.521,423.0641,254.8797,426.298,251.6458,421.6566,254,431.22" style="stroke:#181818;stroke-width:1.0;"/><text fill="#000000" font-family="sans-serif" font-size="13" lengthAdjust="spacing" textLength="143.603" x="281.88" y="389.4569">Data storage/retrieval</text></g><!--link APIGateway to Queue--><g id="link_APIGateway_Queue"><path d="M619.87,346.8 C640.81,354.59 664.59,364.66 684.88,376.39 C711.96,392.05 735.154,411.232 752.754,427.102 " fill="none" id="APIGateway-to-Queue" style="stroke:#181818;stroke-width:1.0;"/><polygon fill="#181818" points="757.21,431.12,753.2047,422.1224,753.4967,427.7717,747.8474,428.0637,757.21,431.12" style="stroke:#181818;stroke-width:1.0;"/><text fill="#000000" font-family="sans-serif" font-size="13" lengthAdjust="spacing" textLength="96.4971" x="709.88" y="389.4569">Manage queue</text></g><!--link APIGateway to Notification--><g id="link_APIGateway_Notification"><path d="M563.97,346.87 C561.49,369.58 557.8678,402.8551 555.4178,425.4151 " fill="none" id="APIGateway-to-Notification" style="stroke:#181818;stroke-width:1.0;"/><polygon fill="#181818" points="554.77,431.38,559.7183,422.8645,555.3098,426.4092,551.7651,422.0007,554.77,431.38" style="stroke:#181818;stroke-width:1.0;"/><text fill="#000000" font-family="sans-serif" font-size="13" lengthAdjust="spacing" textLength="116.7524" x="560.88" y="389.4569">Send notifications</text></g><!--link APIGateway to Geolocation--><g id="link_APIGateway_Geolocation"><path d="M511.39,330.1 C411.75,332.52 204.75,341.68 142.88,376.39 C123.92,387.04 112.2548,401.8299 102.6848,418.0799 " fill="none" id="APIGateway-to-Geolocation" style="stroke:#181818;stroke-width:1.0;"/><polygon fill="#181818" points="99.64,423.25,107.6538,417.5248,102.1773,418.9416,100.7604,413.4651,99.64,423.25" style="stroke:#181818;stroke-width:1.0;"/><text fill="#000000" font-family="sans-serif" font-size="13" lengthAdjust="spacing" textLength="115.8765" x="143.88" y="389.4569">Fetch geolocation</text></g><!--link Notification to CustomerApp--><g id="link_Notification_CustomerApp"><path d="M617,431.05 C627.62,428.34 638.54,425.69 648.88,423.39 C685.48,415.28 789.85,421.29 814.88,393.39 C838.35,367.24 833.6742,262.8657 830.6742,219.5157 " fill="none" id="Notification-to-CustomerApp" style="stroke:#181818;stroke-width:1.0;"/><polygon fill="#181818" points="830.26,213.53,826.8909,222.7847,830.6052,218.5181,834.8718,222.2324,830.26,213.53" style="stroke:#181818;stroke-width:1.0;"/><text fill="#000000" font-family="sans-serif" font-size="13" lengthAdjust="spacing" textLength="126.8262" x="833.88" y="332.8169">Push orderEntity updates</text></g><!--link Queue to CustomerApp--><g id="link_Queue_CustomerApp"><path d="M854.92,431.12 C900.23,416.55 953.42,390.79 980.88,346.39 C998.72,317.56 998.85,298.86 980.88,270.1 C963.46,242.21 937.8121,226.6257 908.1421,215.5657 " fill="none" id="Queue-to-CustomerApp" style="stroke:#181818;stroke-width:1.0;"/><polygon fill="#181818" points="902.52,213.47,909.556,220.3617,907.2051,215.2164,912.3503,212.8655,902.52,213.47" style="stroke:#181818;stroke-width:1.0;"/><text fill="#000000" font-family="sans-serif" font-size="13" lengthAdjust="spacing" textLength="155.0415" x="994.88" y="332.8169">Queue position updates</text></g><!--SRC=[XP9DRzim38Rl_XM4U-aEHJzps0u3ykMWXwmTV6ntK6mc5kf8dYGtw8R-zv6Iue-bGEs3GRuFAUgbxOjKZJ1Y3njHlEoCRbKvrxKsS9PD-4riHnHwtsY5okNkhKOmM3YXTZKEa2u7VnEWPwPDYIOslBsx-pfPXlp_XotdsLLsxRLCAnUpD_FRvUIgo-Ro3yBrJVAU9A9m1CnRw_GU3GWBwJ58evXNkdaugAXo13vCawGVCrthZQJlj6bgMGWdjR9f7FwfQqygdCk7_7AgIgDb-UKNzppAf4PURxU8_c0kyH073BoFJkNxeoeXH_Cg2-oFd3xUmqeuF8WtNqvn38E-44viX4KlBcQng7NLiLMeeaIGVhRO8go54ZlSq-f6c1S3zqCxkOq6Z9YXm9TuMY7jPWm-g_ELrdonjMZypC6W0PeadPaN5z-7ri4tIE-LGqDRit2GhagJVdKCHmiP31Unu7yhc_PTMMUszujnThCGTMr3oq-XWU0vzfK9-f9tqOKJR35ZY3S3D8oX0IyDEYFnLTGdS5X8TnNupV49DLe7mJd_B6gGF1rsk1UgoD0L5Upw99arwlh16XvRMmLheMrAwasdX7a_W8FGQ2jzksF1Fm00]--></g></svg>