<svg xmlns="http://www.w3.org/2000/svg" xmlns:xlink="http://www.w3.org/1999/xlink" contentStyleType="text/css" height="748px" preserveAspectRatio="none" style="width:1162px;height:748px;background:#F5F5F5;" version="1.1" viewBox="0 0 1162 748" width="1162px" zoomAndPan="magnify"><defs/><g><rect fill="#F5F5F5" height="748" style="stroke:none;stroke-width:1.0;" width="1162" x="0" y="0"/><line style="stroke:#181818;stroke-width:0.5;stroke-dasharray:5.0,5.0;" x1="42" x2="42" y1="81.2969" y2="667.6875"/><line style="stroke:#181818;stroke-width:0.5;stroke-dasharray:5.0,5.0;" x1="293.6914" x2="293.6914" y1="81.2969" y2="667.6875"/><line style="stroke:#181818;stroke-width:0.5;stroke-dasharray:5.0,5.0;" x1="556.0811" x2="556.0811" y1="81.2969" y2="667.6875"/><line style="stroke:#181818;stroke-width:0.5;stroke-dasharray:5.0,5.0;" x1="783.0635" x2="783.0635" y1="81.2969" y2="667.6875"/><line style="stroke:#181818;stroke-width:0.5;stroke-dasharray:5.0,5.0;" x1="869.8643" x2="869.8643" y1="81.2969" y2="667.6875"/><line style="stroke:#181818;stroke-width:0.5;stroke-dasharray:5.0,5.0;" x1="1044.0576" x2="1044.0576" y1="81.2969" y2="667.6875"/><text fill="#000000" font-family="sans-serif" font-size="14" lengthAdjust="spacing" textLength="68.0039" x="5" y="77.9951">Customer</text><ellipse cx="42.002" cy="13.5" fill="#E2E2F0" rx="8" ry="8" style="stroke:#181818;stroke-width:0.5;"/><path d="M42.002,21.5 L42.002,48.5 M29.002,29.5 L55.002,29.5 M42.002,48.5 L29.002,63.5 M42.002,48.5 L55.002,63.5 " fill="none" style="stroke:#181818;stroke-width:0.5;"/><text fill="#000000" font-family="sans-serif" font-size="14" lengthAdjust="spacing" textLength="68.0039" x="5" y="679.6826">Customer</text><ellipse cx="42.002" cy="691.4844" fill="#E2E2F0" rx="8" ry="8" style="stroke:#181818;stroke-width:0.5;"/><path d="M42.002,699.4844 L42.002,726.4844 M29.002,707.4844 L55.002,707.4844 M42.002,726.4844 L29.002,741.4844 M42.002,726.4844 L55.002,741.4844 " fill="none" style="stroke:#181818;stroke-width:0.5;"/><rect fill="#E2E2F0" height="30.2969" rx="2.5" ry="2.5" style="stroke:#181818;stroke-width:0.5;" width="113.8047" x="237.6914" y="50"/><text fill="#000000" font-family="sans-serif" font-size="14" lengthAdjust="spacing" textLength="99.8047" x="244.6914" y="69.9951">Customer App</text><rect fill="#E2E2F0" height="30.2969" rx="2.5" ry="2.5" style="stroke:#181818;stroke-width:0.5;" width="113.8047" x="237.6914" y="666.6875"/><text fill="#000000" font-family="sans-serif" font-size="14" lengthAdjust="spacing" textLength="99.8047" x="244.6914" y="686.6826">Customer App</text><rect fill="#E2E2F0" height="30.2969" rx="2.5" ry="2.5" style="stroke:#181818;stroke-width:0.5;" width="100.96" x="506.0811" y="50"/><text fill="#000000" font-family="sans-serif" font-size="14" lengthAdjust="spacing" textLength="86.96" x="513.0811" y="69.9951">Backend API</text><rect fill="#E2E2F0" height="30.2969" rx="2.5" ry="2.5" style="stroke:#181818;stroke-width:0.5;" width="100.96" x="506.0811" y="666.6875"/><text fill="#000000" font-family="sans-serif" font-size="14" lengthAdjust="spacing" textLength="86.96" x="513.0811" y="686.6826">Backend API</text><text fill="#000000" font-family="sans-serif" font-size="14" lengthAdjust="spacing" textLength="66.8008" x="747.0635" y="77.9951">Database</text><path d="M765.4639,29 C765.4639,19 783.4639,19 783.4639,19 C783.4639,19 801.4639,19 801.4639,29 L801.4639,55 C801.4639,65 783.4639,65 783.4639,65 C783.4639,65 765.4639,65 765.4639,55 L765.4639,29 " fill="#E2E2F0" style="stroke:#181818;stroke-width:1.5;"/><path d="M765.4639,29 C765.4639,39 783.4639,39 783.4639,39 C783.4639,39 801.4639,39 801.4639,29 " fill="none" style="stroke:#181818;stroke-width:1.5;"/><text fill="#000000" font-family="sans-serif" font-size="14" lengthAdjust="spacing" textLength="66.8008" x="747.0635" y="679.6826">Database</text><path d="M765.4639,692.9844 C765.4639,682.9844 783.4639,682.9844 783.4639,682.9844 C783.4639,682.9844 801.4639,682.9844 801.4639,692.9844 L801.4639,718.9844 C801.4639,728.9844 783.4639,728.9844 783.4639,728.9844 C783.4639,728.9844 765.4639,728.9844 765.4639,718.9844 L765.4639,692.9844 " fill="#E2E2F0" style="stroke:#181818;stroke-width:1.5;"/><path d="M765.4639,692.9844 C765.4639,702.9844 783.4639,702.9844 783.4639,702.9844 C783.4639,702.9844 801.4639,702.9844 801.4639,692.9844 " fill="none" style="stroke:#181818;stroke-width:1.5;"/><rect fill="#E2E2F0" height="30.2969" rx="2.5" ry="2.5" style="stroke:#181818;stroke-width:0.5;" width="81.0127" x="829.8643" y="50"/><text fill="#000000" font-family="sans-serif" font-size="14" lengthAdjust="spacing" textLength="67.0127" x="836.8643" y="69.9951">Shop App</text><rect fill="#E2E2F0" height="30.2969" rx="2.5" ry="2.5" style="stroke:#181818;stroke-width:0.5;" width="81.0127" x="829.8643" y="666.6875"/><text fill="#000000" font-family="sans-serif" font-size="14" lengthAdjust="spacing" textLength="67.0127" x="836.8643" y="686.6826">Shop App</text><rect fill="#E2E2F0" height="30.2969" rx="2.5" ry="2.5" style="stroke:#181818;stroke-width:0.5;" width="212.8574" x="938.0576" y="50"/><text fill="#000000" font-family="sans-serif" font-size="14" lengthAdjust="spacing" textLength="198.8574" x="945.0576" y="69.9951">Queue Management Service</text><rect fill="#E2E2F0" height="30.2969" rx="2.5" ry="2.5" style="stroke:#181818;stroke-width:0.5;" width="212.8574" x="938.0576" y="666.6875"/><text fill="#000000" font-family="sans-serif" font-size="14" lengthAdjust="spacing" textLength="198.8574" x="945.0576" y="686.6826">Queue Management Service</text><rect fill="#EEEEEE" height="3" style="stroke:#EEEEEE;stroke-width:1.0;" width="1155.915" x="0" y="111.8633"/><line style="stroke:#000000;stroke-width:1.0;" x1="0" x2="1155.915" y1="111.8633" y2="111.8633"/><line style="stroke:#000000;stroke-width:1.0;" x1="0" x2="1155.915" y1="114.8633" y2="114.8633"/><rect fill="#EEEEEE" height="23.1328" style="stroke:#000000;stroke-width:2.0;" width="192.8896" x="481.5127" y="101.2969"/><text fill="#000000" font-family="sans-serif" font-size="13" font-weight="bold" lengthAdjust="spacing" textLength="174.3638" x="487.5127" y="117.3638">Registration/Login Flow</text><polygon fill="#181818" points="282.5938,151.5625,292.5938,155.5625,282.5938,159.5625,286.5938,155.5625" style="stroke:#181818;stroke-width:1.0;"/><line style="stroke:#181818;stroke-width:1.0;" x1="42.002" x2="288.5938" y1="155.5625" y2="155.5625"/><text fill="#000000" font-family="sans-serif" font-size="13" lengthAdjust="spacing" textLength="228.5918" x="49.002" y="150.4966">Register/Login with mobile number</text><polygon fill="#181818" points="544.561,180.6953,554.561,184.6953,544.561,188.6953,548.561,184.6953" style="stroke:#181818;stroke-width:1.0;"/><line style="stroke:#181818;stroke-width:1.0;" x1="294.5938" x2="550.561" y1="184.6953" y2="184.6953"/><text fill="#000000" font-family="sans-serif" font-size="13" lengthAdjust="spacing" textLength="202.0459" x="301.5938" y="179.6294">Send registration/login request</text><polygon fill="#181818" points="771.4639,209.8281,781.4639,213.8281,771.4639,217.8281,775.4639,213.8281" style="stroke:#181818;stroke-width:1.0;"/><line style="stroke:#181818;stroke-width:1.0;" x1="556.561" x2="777.4639" y1="213.8281" y2="213.8281"/><text fill="#000000" font-family="sans-serif" font-size="13" lengthAdjust="spacing" textLength="202.9028" x="563.561" y="208.7622">Store/retrieve customer details</text><polygon fill="#181818" points="567.561,238.9609,557.561,242.9609,567.561,246.9609,563.561,242.9609" style="stroke:#181818;stroke-width:1.0;"/><line style="stroke:#181818;stroke-width:1.0;stroke-dasharray:2.0,2.0;" x1="561.561" x2="782.4639" y1="242.9609" y2="242.9609"/><text fill="#000000" font-family="sans-serif" font-size="13" lengthAdjust="spacing" textLength="166.937" x="573.561" y="237.895">Confirm registration/login</text><polygon fill="#181818" points="305.5938,268.0938,295.5938,272.0938,305.5938,276.0938,301.5938,272.0938" style="stroke:#181818;stroke-width:1.0;"/><line style="stroke:#181818;stroke-width:1.0;stroke-dasharray:2.0,2.0;" x1="299.5938" x2="555.561" y1="272.0938" y2="272.0938"/><text fill="#000000" font-family="sans-serif" font-size="13" lengthAdjust="spacing" textLength="144.6631" x="311.5938" y="267.0278">Return success/failure</text><polygon fill="#181818" points="53.002,297.2266,43.002,301.2266,53.002,305.2266,49.002,301.2266" style="stroke:#181818;stroke-width:1.0;"/><line style="stroke:#181818;stroke-width:1.0;stroke-dasharray:2.0,2.0;" x1="47.002" x2="293.5938" y1="301.2266" y2="301.2266"/><text fill="#000000" font-family="sans-serif" font-size="13" lengthAdjust="spacing" textLength="194.6255" x="59.002" y="296.1606">Show registration/login status</text><rect fill="#EEEEEE" height="3" style="stroke:#EEEEEE;stroke-width:1.0;" width="1155.915" x="0" y="329.793"/><line style="stroke:#000000;stroke-width:1.0;" x1="0" x2="1155.915" y1="329.793" y2="329.793"/><line style="stroke:#000000;stroke-width:1.0;" x1="0" x2="1155.915" y1="332.793" y2="332.793"/><rect fill="#EEEEEE" height="23.1328" style="stroke:#000000;stroke-width:2.0;" width="99.3252" x="528.2949" y="319.2266"/><text fill="#000000" font-family="sans-serif" font-size="13" font-weight="bold" lengthAdjust="spacing" textLength="80.7993" x="534.2949" y="335.2935">Order Flow</text><polygon fill="#181818" points="282.5938,369.4922,292.5938,373.4922,282.5938,377.4922,286.5938,373.4922" style="stroke:#181818;stroke-width:1.0;"/><line style="stroke:#181818;stroke-width:1.0;" x1="42.002" x2="288.5938" y1="373.4922" y2="373.4922"/><text fill="#000000" font-family="sans-serif" font-size="13" lengthAdjust="spacing" textLength="144.3203" x="49.002" y="368.4263">Select shop and items</text><polygon fill="#181818" points="544.561,398.625,554.561,402.625,544.561,406.625,548.561,402.625" style="stroke:#181818;stroke-width:1.0;"/><line style="stroke:#181818;stroke-width:1.0;" x1="294.5938" x2="550.561" y1="402.625" y2="402.625"/><text fill="#000000" font-family="sans-serif" font-size="13" lengthAdjust="spacing" textLength="73.5884" x="301.5938" y="397.5591">Place orderEntity</text><polygon fill="#181818" points="771.4639,427.7578,781.4639,431.7578,771.4639,435.7578,775.4639,431.7578" style="stroke:#181818;stroke-width:1.0;"/><line style="stroke:#181818;stroke-width:1.0;" x1="556.561" x2="777.4639" y1="431.7578" y2="431.7578"/><text fill="#000000" font-family="sans-serif" font-size="13" lengthAdjust="spacing" textLength="118.3774" x="563.561" y="426.6919">Save orderEntity details</text><polygon fill="#181818" points="858.3706,456.8906,868.3706,460.8906,858.3706,464.8906,862.3706,460.8906" style="stroke:#181818;stroke-width:1.0;"/><line style="stroke:#181818;stroke-width:1.0;" x1="556.561" x2="864.3706" y1="460.8906" y2="460.8906"/><text fill="#000000" font-family="sans-serif" font-size="13" lengthAdjust="spacing" textLength="160.6973" x="563.561" y="455.8247">Notify shop of new orderEntity</text><polygon fill="#181818" points="1032.4863,486.0234,1042.4863,490.0234,1032.4863,494.0234,1036.4863,490.0234" style="stroke:#181818;stroke-width:1.0;"/><line style="stroke:#181818;stroke-width:1.0;" x1="556.561" x2="1038.4863" y1="490.0234" y2="490.0234"/><text fill="#000000" font-family="sans-serif" font-size="13" lengthAdjust="spacing" textLength="137.6362" x="563.561" y="484.9575">Update shop's queue</text><polygon fill="#181818" points="881.3706,515.1563,871.3706,519.1563,881.3706,523.1563,877.3706,519.1563" style="stroke:#181818;stroke-width:1.0;"/><line style="stroke:#181818;stroke-width:1.0;" x1="875.3706" x2="1043.4863" y1="519.1563" y2="519.1563"/><text fill="#000000" font-family="sans-serif" font-size="13" lengthAdjust="spacing" textLength="150.1157" x="887.3706" y="514.0903">Notify of queue update</text><rect fill="#EEEEEE" height="3" style="stroke:#EEEEEE;stroke-width:1.0;" width="1155.915" x="0" y="547.7227"/><line style="stroke:#000000;stroke-width:1.0;" x1="0" x2="1155.915" y1="547.7227" y2="547.7227"/><line style="stroke:#000000;stroke-width:1.0;" x1="0" x2="1155.915" y1="550.7227" y2="550.7227"/><rect fill="#EEEEEE" height="23.1328" style="stroke:#000000;stroke-width:2.0;" width="104.5239" x="525.6956" y="537.1563"/><text fill="#000000" font-family="sans-serif" font-size="13" font-weight="bold" lengthAdjust="spacing" textLength="85.998" x="531.6956" y="553.2231">Queue Flow</text><polygon fill="#181818" points="567.561,587.4219,557.561,591.4219,567.561,595.4219,563.561,591.4219" style="stroke:#181818;stroke-width:1.0;"/><line style="stroke:#181818;stroke-width:1.0;" x1="561.561" x2="1043.4863" y1="591.4219" y2="591.4219"/><text fill="#000000" font-family="sans-serif" font-size="13" lengthAdjust="spacing" textLength="194.6318" x="573.561" y="586.356">Fetch updated queue position</text><polygon fill="#181818" points="305.5938,616.5547,295.5938,620.5547,305.5938,624.5547,301.5938,620.5547" style="stroke:#181818;stroke-width:1.0;"/><line style="stroke:#181818;stroke-width:1.0;" x1="299.5938" x2="555.561" y1="620.5547" y2="620.5547"/><text fill="#000000" font-family="sans-serif" font-size="13" lengthAdjust="spacing" textLength="237.9673" x="311.5938" y="615.4888">Return queue position and wait time</text><polygon fill="#181818" points="53.002,645.6875,43.002,649.6875,53.002,653.6875,49.002,649.6875" style="stroke:#181818;stroke-width:1.0;"/><line style="stroke:#181818;stroke-width:1.0;stroke-dasharray:2.0,2.0;" x1="47.002" x2="293.5938" y1="649.6875" y2="649.6875"/><text fill="#000000" font-family="sans-serif" font-size="13" lengthAdjust="spacing" textLength="195.0444" x="59.002" y="644.6216">Display updated queue status</text><!--SRC=[TLBBZjim3BphAuZqqDCYsnPxCP026tiD1EWZRT0FO6J64TQMl18LOr7qtol9Zww3r3dO8OT3pf3kMUaEBRPmHFbSM-DrbPl6M7XNFiIVS3F2acJKTKFmMq1ujjSLJtbvNtuOSiPMPCVun_pJqyDzYfT6ypBwHmYK70AvTsnQiY9qOoLLXvfXDKNXiUjMW2w-buWu1kaA7lUx0R3VYGePZ-W8LiNubLB5TbbwE9jk9ev_bkaVdZp1LzHOKqiXSY1xKNBWIaaXDXluIRLoR96LqUilfbOQoiRqiDc8UVgxpx5FDcB9ZhXUyHbQSrJ1LEtROr0VO0cztsMXNz1btz8tgSpIYoV78e0YjjW6QB2GrfROAheGoAbnHOogSQBOmjr4cnjzKhQzmJmm_XkMlTNWl9JatFeKYBobOSA0cSHbqRh-rfoEaRrB9dsFz_1_NmxKXEi25nU2GRHYQjt2Yts3aY2TrK8tNiReB7NCndrcyCsmEhqEnEO4clebHrfZ1h-wS3AKOEyTlAJT3kk_PWeaAGq-bIHn0t8IDzUbkKjYUHx1rLZQ6QUYJTCGRzrU8f8PFIe6LkqjwmlbkWPVhneCnly5]--></g></svg>