<?xml version="1.0" encoding="us-ascii" standalone="no"?><svg xmlns="http://www.w3.org/2000/svg" xmlns:xlink="http://www.w3.org/1999/xlink" contentStyleType="text/css" height="752px" preserveAspectRatio="none" style="width:1127px;height:752px;background:#F5F5F5;" version="1.1" viewBox="0 0 1127 752" width="1127px" zoomAndPan="magnify"><defs/><g><rect fill="#F5F5F5" height="752" style="stroke:none;stroke-width:1.0;" width="1127" x="0" y="0"/><line style="stroke:#181818;stroke-width:0.5;stroke-dasharray:5.0,5.0;" x1="41" x2="41" y1="81.4883" y2="671.0781"/><line style="stroke:#181818;stroke-width:0.5;stroke-dasharray:5.0,5.0;" x1="288" x2="288" y1="81.4883" y2="671.0781"/><line style="stroke:#181818;stroke-width:0.5;stroke-dasharray:5.0,5.0;" x1="540" x2="540" y1="81.4883" y2="671.0781"/><line style="stroke:#181818;stroke-width:0.5;stroke-dasharray:5.0,5.0;" x1="759" x2="759" y1="81.4883" y2="671.0781"/><line style="stroke:#181818;stroke-width:0.5;stroke-dasharray:5.0,5.0;" x1="844" x2="844" y1="81.4883" y2="671.0781"/><line style="stroke:#181818;stroke-width:0.5;stroke-dasharray:5.0,5.0;" x1="1013.5" x2="1013.5" y1="81.4883" y2="671.0781"/><text fill="#000000" font-family="sans-serif" font-size="14" lengthAdjust="spacing" textLength="67" x="5" y="78.5352">Customer</text><ellipse cx="41.5" cy="13.5" fill="#E2E2F0" rx="8" ry="8" style="stroke:#181818;stroke-width:0.5;"/><path d="M41.5,21.5 L41.5,48.5 M28.5,29.5 L54.5,29.5 M41.5,48.5 L28.5,63.5 M41.5,48.5 L54.5,63.5 " fill="none" style="stroke:#181818;stroke-width:0.5;"/><text fill="#000000" font-family="sans-serif" font-size="14" lengthAdjust="spacing" textLength="67" x="5" y="683.6133">Customer</text><ellipse cx="41.5" cy="695.0664" fill="#E2E2F0" rx="8" ry="8" style="stroke:#181818;stroke-width:0.5;"/><path d="M41.5,703.0664 L41.5,730.0664 M28.5,711.0664 L54.5,711.0664 M41.5,730.0664 L28.5,745.0664 M41.5,730.0664 L54.5,745.0664 " fill="none" style="stroke:#181818;stroke-width:0.5;"/><rect fill="#E2E2F0" height="30.4883" rx="2.5" ry="2.5" style="stroke:#181818;stroke-width:0.5;" width="113" x="232" y="50"/><text fill="#000000" font-family="sans-serif" font-size="14" lengthAdjust="spacing" textLength="99" x="239" y="70.5352">Customer App</text><rect fill="#E2E2F0" height="30.4883" rx="2.5" ry="2.5" style="stroke:#181818;stroke-width:0.5;" width="113" x="232" y="670.0781"/><text fill="#000000" font-family="sans-serif" font-size="14" lengthAdjust="spacing" textLength="99" x="239" y="690.6133">Customer App</text><rect fill="#E2E2F0" height="30.4883" rx="2.5" ry="2.5" style="stroke:#181818;stroke-width:0.5;" width="97" x="492" y="50"/><text fill="#000000" font-family="sans-serif" font-size="14" lengthAdjust="spacing" textLength="83" x="499" y="70.5352">Backend API</text><rect fill="#E2E2F0" height="30.4883" rx="2.5" ry="2.5" style="stroke:#181818;stroke-width:0.5;" width="97" x="492" y="670.0781"/><text fill="#000000" font-family="sans-serif" font-size="14" lengthAdjust="spacing" textLength="83" x="499" y="690.6133">Backend API</text><text fill="#000000" font-family="sans-serif" font-size="14" lengthAdjust="spacing" textLength="63" x="725" y="78.5352">Database</text><path d="M741.5,29 C741.5,19 759.5,19 759.5,19 C759.5,19 777.5,19 777.5,29 L777.5,55 C777.5,65 759.5,65 759.5,65 C759.5,65 741.5,65 741.5,55 L741.5,29 " fill="#E2E2F0" style="stroke:#181818;stroke-width:1.5;"/><path d="M741.5,29 C741.5,39 759.5,39 759.5,39 C759.5,39 777.5,39 777.5,29 " fill="none" style="stroke:#181818;stroke-width:1.5;"/><text fill="#000000" font-family="sans-serif" font-size="14" lengthAdjust="spacing" textLength="63" x="725" y="683.6133">Database</text><path d="M741.5,696.5664 C741.5,686.5664 759.5,686.5664 759.5,686.5664 C759.5,686.5664 777.5,686.5664 777.5,696.5664 L777.5,722.5664 C777.5,732.5664 759.5,732.5664 759.5,732.5664 C759.5,732.5664 741.5,732.5664 741.5,722.5664 L741.5,696.5664 " fill="#E2E2F0" style="stroke:#181818;stroke-width:1.5;"/><path d="M741.5,696.5664 C741.5,706.5664 759.5,706.5664 759.5,706.5664 C759.5,706.5664 777.5,706.5664 777.5,696.5664 " fill="none" style="stroke:#181818;stroke-width:1.5;"/><rect fill="#E2E2F0" height="30.4883" rx="2.5" ry="2.5" style="stroke:#181818;stroke-width:0.5;" width="81" x="804" y="50"/><text fill="#000000" font-family="sans-serif" font-size="14" lengthAdjust="spacing" textLength="67" x="811" y="70.5352">Shop App</text><rect fill="#E2E2F0" height="30.4883" rx="2.5" ry="2.5" style="stroke:#181818;stroke-width:0.5;" width="81" x="804" y="670.0781"/><text fill="#000000" font-family="sans-serif" font-size="14" lengthAdjust="spacing" textLength="67" x="811" y="690.6133">Shop App</text><rect fill="#E2E2F0" height="30.4883" rx="2.5" ry="2.5" style="stroke:#181818;stroke-width:0.5;" width="204" x="911.5" y="50"/><text fill="#000000" font-family="sans-serif" font-size="14" lengthAdjust="spacing" textLength="190" x="918.5" y="70.5352">Queue Management Service</text><rect fill="#E2E2F0" height="30.4883" rx="2.5" ry="2.5" style="stroke:#181818;stroke-width:0.5;" width="204" x="911.5" y="670.0781"/><text fill="#000000" font-family="sans-serif" font-size="14" lengthAdjust="spacing" textLength="190" x="918.5" y="690.6133">Queue Management Service</text><rect fill="#EEEEEE" height="3" style="stroke:#EEEEEE;stroke-width:1.0;" width="1120.5" x="0" y="112.1436"/><line style="stroke:#000000;stroke-width:1.0;" x1="0" x2="1120.5" y1="112.1436" y2="112.1436"/><line style="stroke:#000000;stroke-width:1.0;" x1="0" x2="1120.5" y1="115.1436" y2="115.1436"/><rect fill="#EEEEEE" height="23.3105" style="stroke:#000000;stroke-width:2.0;" width="179" x="470.75" y="101.4883"/><text fill="#000000" font-family="sans-serif" font-size="13" font-weight="bold" lengthAdjust="spacing" textLength="161" x="476.75" y="118.0566">Registration/Login Flow</text><polygon fill="#181818" points="276.5,152.1094,286.5,156.1094,276.5,160.1094,280.5,156.1094" style="stroke:#181818;stroke-width:1.0;"/><line style="stroke:#181818;stroke-width:1.0;" x1="41.5" x2="282.5" y1="156.1094" y2="156.1094"/><text fill="#000000" font-family="sans-serif" font-size="13" lengthAdjust="spacing" textLength="223" x="48.5" y="151.3672">Register/Login with mobile number</text><polygon fill="#181818" points="528.5,181.4199,538.5,185.4199,528.5,189.4199,532.5,185.4199" style="stroke:#181818;stroke-width:1.0;"/><line style="stroke:#181818;stroke-width:1.0;" x1="288.5" x2="534.5" y1="185.4199" y2="185.4199"/><text fill="#000000" font-family="sans-serif" font-size="13" lengthAdjust="spacing" textLength="197" x="295.5" y="180.6777">Send registration/login request</text><polygon fill="#181818" points="747.5,210.7305,757.5,214.7305,747.5,218.7305,751.5,214.7305" style="stroke:#181818;stroke-width:1.0;"/><line style="stroke:#181818;stroke-width:1.0;" x1="540.5" x2="753.5" y1="214.7305" y2="214.7305"/><text fill="#000000" font-family="sans-serif" font-size="13" lengthAdjust="spacing" textLength="195" x="547.5" y="209.9883">Store/retrieve customer details</text><polygon fill="#181818" points="551.5,240.041,541.5,244.041,551.5,248.041,547.5,244.041" style="stroke:#181818;stroke-width:1.0;"/><line style="stroke:#181818;stroke-width:1.0;stroke-dasharray:2.0,2.0;" x1="545.5" x2="758.5" y1="244.041" y2="244.041"/><text fill="#000000" font-family="sans-serif" font-size="13" lengthAdjust="spacing" textLength="167" x="557.5" y="239.2988">Confirm registration/login</text><polygon fill="#181818" points="299.5,269.3516,289.5,273.3516,299.5,277.3516,295.5,273.3516" style="stroke:#181818;stroke-width:1.0;"/><line style="stroke:#181818;stroke-width:1.0;stroke-dasharray:2.0,2.0;" x1="293.5" x2="539.5" y1="273.3516" y2="273.3516"/><text fill="#000000" font-family="sans-serif" font-size="13" lengthAdjust="spacing" textLength="142" x="305.5" y="268.6094">Return success/failure</text><polygon fill="#181818" points="52.5,298.6621,42.5,302.6621,52.5,306.6621,48.5,302.6621" style="stroke:#181818;stroke-width:1.0;"/><line style="stroke:#181818;stroke-width:1.0;stroke-dasharray:2.0,2.0;" x1="46.5" x2="287.5" y1="302.6621" y2="302.6621"/><text fill="#000000" font-family="sans-serif" font-size="13" lengthAdjust="spacing" textLength="192" x="58.5" y="297.9199">Show registration/login status</text><rect fill="#EEEEEE" height="3" style="stroke:#EEEEEE;stroke-width:1.0;" width="1120.5" x="0" y="331.3174"/><line style="stroke:#000000;stroke-width:1.0;" x1="0" x2="1120.5" y1="331.3174" y2="331.3174"/><line style="stroke:#000000;stroke-width:1.0;" x1="0" x2="1120.5" y1="334.3174" y2="334.3174"/><rect fill="#EEEEEE" height="23.3105" style="stroke:#000000;stroke-width:2.0;" width="92" x="514.25" y="320.6621"/><text fill="#000000" font-family="sans-serif" font-size="13" font-weight="bold" lengthAdjust="spacing" textLength="74" x="520.25" y="337.2305">Order Flow</text><polygon fill="#181818" points="276.5,371.2832,286.5,375.2832,276.5,379.2832,280.5,375.2832" style="stroke:#181818;stroke-width:1.0;"/><line style="stroke:#181818;stroke-width:1.0;" x1="41.5" x2="282.5" y1="375.2832" y2="375.2832"/><text fill="#000000" font-family="sans-serif" font-size="13" lengthAdjust="spacing" textLength="138" x="48.5" y="370.541">Select shop and items</text><polygon fill="#181818" points="528.5,400.5938,538.5,404.5938,528.5,408.5938,532.5,404.5938" style="stroke:#181818;stroke-width:1.0;"/><line style="stroke:#181818;stroke-width:1.0;" x1="288.5" x2="534.5" y1="404.5938" y2="404.5938"/><text fill="#000000" font-family="sans-serif" font-size="13" lengthAdjust="spacing" textLength="69" x="295.5" y="399.8516">Place order</text><polygon fill="#181818" points="747.5,429.9043,757.5,433.9043,747.5,437.9043,751.5,433.9043" style="stroke:#181818;stroke-width:1.0;"/><line style="stroke:#181818;stroke-width:1.0;" x1="540.5" x2="753.5" y1="433.9043" y2="433.9043"/><text fill="#000000" font-family="sans-serif" font-size="13" lengthAdjust="spacing" textLength="111" x="547.5" y="429.1621">Save order details</text><polygon fill="#181818" points="832.5,459.2148,842.5,463.2148,832.5,467.2148,836.5,463.2148" style="stroke:#181818;stroke-width:1.0;"/><line style="stroke:#181818;stroke-width:1.0;" x1="540.5" x2="838.5" y1="463.2148" y2="463.2148"/><text fill="#000000" font-family="sans-serif" font-size="13" lengthAdjust="spacing" textLength="157" x="547.5" y="458.4727">Notify shop of new order</text><polygon fill="#181818" points="1001.5,488.5254,1011.5,492.5254,1001.5,496.5254,1005.5,492.5254" style="stroke:#181818;stroke-width:1.0;"/><line style="stroke:#181818;stroke-width:1.0;" x1="540.5" x2="1007.5" y1="492.5254" y2="492.5254"/><text fill="#000000" font-family="sans-serif" font-size="13" lengthAdjust="spacing" textLength="131" x="547.5" y="487.7832">Update shop's queue</text><polygon fill="#181818" points="855.5,517.8359,845.5,521.8359,855.5,525.8359,851.5,521.8359" style="stroke:#181818;stroke-width:1.0;"/><line style="stroke:#181818;stroke-width:1.0;" x1="849.5" x2="1012.5" y1="521.8359" y2="521.8359"/><text fill="#000000" font-family="sans-serif" font-size="13" lengthAdjust="spacing" textLength="145" x="861.5" y="517.0938">Notify of queue update</text><rect fill="#EEEEEE" height="3" style="stroke:#EEEEEE;stroke-width:1.0;" width="1120.5" x="0" y="550.4912"/><line style="stroke:#000000;stroke-width:1.0;" x1="0" x2="1120.5" y1="550.4912" y2="550.4912"/><line style="stroke:#000000;stroke-width:1.0;" x1="0" x2="1120.5" y1="553.4912" y2="553.4912"/><rect fill="#EEEEEE" height="23.3105" style="stroke:#000000;stroke-width:2.0;" width="97" x="511.75" y="539.8359"/><text fill="#000000" font-family="sans-serif" font-size="13" font-weight="bold" lengthAdjust="spacing" textLength="79" x="517.75" y="556.4043">Queue Flow</text><polygon fill="#181818" points="551.5,590.457,541.5,594.457,551.5,598.457,547.5,594.457" style="stroke:#181818;stroke-width:1.0;"/><line style="stroke:#181818;stroke-width:1.0;" x1="545.5" x2="1012.5" y1="594.457" y2="594.457"/><text fill="#000000" font-family="sans-serif" font-size="13" lengthAdjust="spacing" textLength="187" x="557.5" y="589.7148">Fetch updated queue position</text><polygon fill="#181818" points="299.5,619.7676,289.5,623.7676,299.5,627.7676,295.5,623.7676" style="stroke:#181818;stroke-width:1.0;"/><line style="stroke:#181818;stroke-width:1.0;" x1="293.5" x2="539.5" y1="623.7676" y2="623.7676"/><text fill="#000000" font-family="sans-serif" font-size="13" lengthAdjust="spacing" textLength="228" x="305.5" y="619.0254">Return queue position and wait time</text><polygon fill="#181818" points="52.5,649.0781,42.5,653.0781,52.5,657.0781,48.5,653.0781" style="stroke:#181818;stroke-width:1.0;"/><line style="stroke:#181818;stroke-width:1.0;stroke-dasharray:2.0,2.0;" x1="46.5" x2="287.5" y1="653.0781" y2="653.0781"/><text fill="#000000" font-family="sans-serif" font-size="13" lengthAdjust="spacing" textLength="187" x="58.5" y="648.3359">Display updated queue status</text><!--SRC=[TLBBZjim3BphAuZqqDCYsnPxCP026tiD1EWZRT0FO6J64TQMl18LOr7qtol9Zww3r3dO8OT3pf3kMUaEBRPmHFbSM-DrbPl6M7XNFiIVS3F2acJKTKFmMq1ujjSLJtbvNtuOSiPMPCVun_pJqyDzYfT6ypBwHmYK70AvTsnQiY9qOoLLXvfXDKNXiUjMW2w-buWu1kaA7lUx0R3VYGePZ-W8LiNubLB5TbbwE9jk9ev_bkaVdZp1LzHOKqiXSY1xKNBWIaaXDXluIRLoR96LqUilfbOQoiRqiDc8UVgxpx5FDcB9ZhXUyHbQSrJ1LEtROr0VO0cztsMXNz1btz8tgSpIYoV78e0YjjW6QB2GrfROAheGoAbnHOogSQBOmjr4cnjzKhQzmJmm_XkMlTNWl9JatFeKYBobOSA0cSHbqRh-rfoEaRrB9dsFz_1_NmxKXEi25nU2GRHYQjt2Yts3aY2TrK8tNiReB7NCndrcyCsmEhqEnEO4clebHrfZ1h-wS3AKOEyTlAJT3kk_PWeaAGq-bIHn0t8IDzUbkKjYUHx1rLZQ6QUYJTCGRzrU8f8PFIe6LkqjwmlbkWPVhngCnly5]--></g></svg>