<?xml version="1.0" encoding="us-ascii" standalone="no"?><svg xmlns="http://www.w3.org/2000/svg" xmlns:xlink="http://www.w3.org/1999/xlink" contentStyleType="text/css" height="882px" preserveAspectRatio="none" style="width:1337px;height:882px;background:#F5F5F5;" version="1.1" viewBox="0 0 1337 882" width="1337px" zoomAndPan="magnify"><defs/><g><rect fill="#F5F5F5" height="882" style="stroke:none;stroke-width:1.0;" width="1337" x="0" y="0"/><line style="stroke:#181818;stroke-width:0.5;stroke-dasharray:5.0,5.0;" x1="41" x2="41" y1="81.4883" y2="801.3203"/><line style="stroke:#181818;stroke-width:0.5;stroke-dasharray:5.0,5.0;" x1="288" x2="288" y1="81.4883" y2="801.3203"/><line style="stroke:#181818;stroke-width:0.5;stroke-dasharray:5.0,5.0;" x1="509" x2="509" y1="81.4883" y2="801.3203"/><line style="stroke:#181818;stroke-width:0.5;stroke-dasharray:5.0,5.0;" x1="728" x2="728" y1="81.4883" y2="801.3203"/><line style="stroke:#181818;stroke-width:0.5;stroke-dasharray:5.0,5.0;" x1="813" x2="813" y1="81.4883" y2="801.3203"/><line style="stroke:#181818;stroke-width:0.5;stroke-dasharray:5.0,5.0;" x1="966" x2="966" y1="81.4883" y2="801.3203"/><line style="stroke:#181818;stroke-width:0.5;stroke-dasharray:5.0,5.0;" x1="1300.5" x2="1300.5" y1="81.4883" y2="801.3203"/><text fill="#000000" font-family="sans-serif" font-size="14" lengthAdjust="spacing" textLength="67" x="5" y="78.5352">Customer</text><ellipse cx="41.5" cy="13.5" fill="#E2E2F0" rx="8" ry="8" style="stroke:#181818;stroke-width:0.5;"/><path d="M41.5,21.5 L41.5,48.5 M28.5,29.5 L54.5,29.5 M41.5,48.5 L28.5,63.5 M41.5,48.5 L54.5,63.5 " fill="none" style="stroke:#181818;stroke-width:0.5;"/><text fill="#000000" font-family="sans-serif" font-size="14" lengthAdjust="spacing" textLength="67" x="5" y="813.8555">Customer</text><ellipse cx="41.5" cy="825.3086" fill="#E2E2F0" rx="8" ry="8" style="stroke:#181818;stroke-width:0.5;"/><path d="M41.5,833.3086 L41.5,860.3086 M28.5,841.3086 L54.5,841.3086 M41.5,860.3086 L28.5,875.3086 M41.5,860.3086 L54.5,875.3086 " fill="none" style="stroke:#181818;stroke-width:0.5;"/><rect fill="#E2E2F0" height="30.4883" rx="2.5" ry="2.5" style="stroke:#181818;stroke-width:0.5;" width="113" x="232" y="50"/><text fill="#000000" font-family="sans-serif" font-size="14" lengthAdjust="spacing" textLength="99" x="239" y="70.5352">Customer App</text><rect fill="#E2E2F0" height="30.4883" rx="2.5" ry="2.5" style="stroke:#181818;stroke-width:0.5;" width="113" x="232" y="800.3203"/><text fill="#000000" font-family="sans-serif" font-size="14" lengthAdjust="spacing" textLength="99" x="239" y="820.8555">Customer App</text><rect fill="#E2E2F0" height="30.4883" rx="2.5" ry="2.5" style="stroke:#181818;stroke-width:0.5;" width="203" x="408" y="50"/><text fill="#000000" font-family="sans-serif" font-size="14" lengthAdjust="spacing" textLength="189" x="415" y="70.5352">Backend API (Order Service)</text><rect fill="#E2E2F0" height="30.4883" rx="2.5" ry="2.5" style="stroke:#181818;stroke-width:0.5;" width="203" x="408" y="800.3203"/><text fill="#000000" font-family="sans-serif" font-size="14" lengthAdjust="spacing" textLength="189" x="415" y="820.8555">Backend API (Order Service)</text><text fill="#000000" font-family="sans-serif" font-size="14" lengthAdjust="spacing" textLength="63" x="694" y="78.5352">Database</text><path d="M710.5,29 C710.5,19 728.5,19 728.5,19 C728.5,19 746.5,19 746.5,29 L746.5,55 C746.5,65 728.5,65 728.5,65 C728.5,65 710.5,65 710.5,55 L710.5,29 " fill="#E2E2F0" style="stroke:#181818;stroke-width:1.5;"/><path d="M710.5,29 C710.5,39 728.5,39 728.5,39 C728.5,39 746.5,39 746.5,29 " fill="none" style="stroke:#181818;stroke-width:1.5;"/><text fill="#000000" font-family="sans-serif" font-size="14" lengthAdjust="spacing" textLength="63" x="694" y="813.8555">Database</text><path d="M710.5,826.8086 C710.5,816.8086 728.5,816.8086 728.5,816.8086 C728.5,816.8086 746.5,816.8086 746.5,826.8086 L746.5,852.8086 C746.5,862.8086 728.5,862.8086 728.5,862.8086 C728.5,862.8086 710.5,862.8086 710.5,852.8086 L710.5,826.8086 " fill="#E2E2F0" style="stroke:#181818;stroke-width:1.5;"/><path d="M710.5,826.8086 C710.5,836.8086 728.5,836.8086 728.5,836.8086 C728.5,836.8086 746.5,836.8086 746.5,826.8086 " fill="none" style="stroke:#181818;stroke-width:1.5;"/><rect fill="#E2E2F0" height="30.4883" rx="2.5" ry="2.5" style="stroke:#181818;stroke-width:0.5;" width="81" x="773" y="50"/><text fill="#000000" font-family="sans-serif" font-size="14" lengthAdjust="spacing" textLength="67" x="780" y="70.5352">Shop App</text><rect fill="#E2E2F0" height="30.4883" rx="2.5" ry="2.5" style="stroke:#181818;stroke-width:0.5;" width="81" x="773" y="800.3203"/><text fill="#000000" font-family="sans-serif" font-size="14" lengthAdjust="spacing" textLength="67" x="780" y="820.8555">Shop App</text><rect fill="#E2E2F0" height="30.4883" rx="2.5" ry="2.5" style="stroke:#181818;stroke-width:0.5;" width="204" x="864" y="50"/><text fill="#000000" font-family="sans-serif" font-size="14" lengthAdjust="spacing" textLength="190" x="871" y="70.5352">Queue Management Service</text><rect fill="#E2E2F0" height="30.4883" rx="2.5" ry="2.5" style="stroke:#181818;stroke-width:0.5;" width="204" x="864" y="800.3203"/><text fill="#000000" font-family="sans-serif" font-size="14" lengthAdjust="spacing" textLength="190" x="871" y="820.8555">Queue Management Service</text><text fill="#000000" font-family="sans-serif" font-size="14" lengthAdjust="spacing" textLength="38" x="1279" y="78.5352">Kafka</text><path d="M1280.5,37 L1280.5,61 M1280.5,49 L1297.5,49 " fill="none" style="stroke:#181818;stroke-width:0.5;"/><ellipse cx="1309.5" cy="49" fill="#E2E2F0" rx="12" ry="12" style="stroke:#181818;stroke-width:0.5;"/><text fill="#000000" font-family="sans-serif" font-size="14" lengthAdjust="spacing" textLength="38" x="1279" y="813.8555">Kafka</text><path d="M1280.5,820.8086 L1280.5,844.8086 M1280.5,832.8086 L1297.5,832.8086 " fill="none" style="stroke:#181818;stroke-width:0.5;"/><ellipse cx="1309.5" cy="832.8086" fill="#E2E2F0" rx="12" ry="12" style="stroke:#181818;stroke-width:0.5;"/><rect fill="#EEEEEE" height="3" style="stroke:#EEEEEE;stroke-width:1.0;" width="1330.5" x="0" y="112.1436"/><line style="stroke:#000000;stroke-width:1.0;" x1="0" x2="1330.5" y1="112.1436" y2="112.1436"/><line style="stroke:#000000;stroke-width:1.0;" x1="0" x2="1330.5" y1="115.1436" y2="115.1436"/><rect fill="#EEEEEE" height="23.3105" style="stroke:#000000;stroke-width:2.0;" width="179" x="575.75" y="101.4883"/><text fill="#000000" font-family="sans-serif" font-size="13" font-weight="bold" lengthAdjust="spacing" textLength="161" x="581.75" y="118.0566">Registration/Login Flow</text><polygon fill="#181818" points="276.5,152.1094,286.5,156.1094,276.5,160.1094,280.5,156.1094" style="stroke:#181818;stroke-width:1.0;"/><line style="stroke:#181818;stroke-width:1.0;" x1="41.5" x2="282.5" y1="156.1094" y2="156.1094"/><text fill="#000000" font-family="sans-serif" font-size="13" lengthAdjust="spacing" textLength="223" x="48.5" y="151.3672">Register/Login with mobile number</text><polygon fill="#181818" points="497.5,181.4199,507.5,185.4199,497.5,189.4199,501.5,185.4199" style="stroke:#181818;stroke-width:1.0;"/><line style="stroke:#181818;stroke-width:1.0;" x1="288.5" x2="503.5" y1="185.4199" y2="185.4199"/><text fill="#000000" font-family="sans-serif" font-size="13" lengthAdjust="spacing" textLength="197" x="295.5" y="180.6777">Send registration/login request</text><polygon fill="#181818" points="716.5,210.7305,726.5,214.7305,716.5,218.7305,720.5,214.7305" style="stroke:#181818;stroke-width:1.0;"/><line style="stroke:#181818;stroke-width:1.0;" x1="509.5" x2="722.5" y1="214.7305" y2="214.7305"/><text fill="#000000" font-family="sans-serif" font-size="13" lengthAdjust="spacing" textLength="195" x="516.5" y="209.9883">Store/retrieve customer details</text><polygon fill="#181818" points="520.5,240.041,510.5,244.041,520.5,248.041,516.5,244.041" style="stroke:#181818;stroke-width:1.0;"/><line style="stroke:#181818;stroke-width:1.0;stroke-dasharray:2.0,2.0;" x1="514.5" x2="727.5" y1="244.041" y2="244.041"/><text fill="#000000" font-family="sans-serif" font-size="13" lengthAdjust="spacing" textLength="167" x="526.5" y="239.2988">Confirm registration/login</text><polygon fill="#181818" points="299.5,269.3516,289.5,273.3516,299.5,277.3516,295.5,273.3516" style="stroke:#181818;stroke-width:1.0;"/><line style="stroke:#181818;stroke-width:1.0;stroke-dasharray:2.0,2.0;" x1="293.5" x2="508.5" y1="273.3516" y2="273.3516"/><text fill="#000000" font-family="sans-serif" font-size="13" lengthAdjust="spacing" textLength="142" x="305.5" y="268.6094">Return success/failure</text><polygon fill="#181818" points="52.5,298.6621,42.5,302.6621,52.5,306.6621,48.5,302.6621" style="stroke:#181818;stroke-width:1.0;"/><line style="stroke:#181818;stroke-width:1.0;stroke-dasharray:2.0,2.0;" x1="46.5" x2="287.5" y1="302.6621" y2="302.6621"/><text fill="#000000" font-family="sans-serif" font-size="13" lengthAdjust="spacing" textLength="192" x="58.5" y="297.9199">Show registration/login status</text><rect fill="#EEEEEE" height="3" style="stroke:#EEEEEE;stroke-width:1.0;" width="1330.5" x="0" y="331.3174"/><line style="stroke:#000000;stroke-width:1.0;" x1="0" x2="1330.5" y1="331.3174" y2="331.3174"/><line style="stroke:#000000;stroke-width:1.0;" x1="0" x2="1330.5" y1="334.3174" y2="334.3174"/><rect fill="#EEEEEE" height="23.3105" style="stroke:#000000;stroke-width:2.0;" width="177" x="576.75" y="320.6621"/><text fill="#000000" font-family="sans-serif" font-size="13" font-weight="bold" lengthAdjust="spacing" textLength="159" x="582.75" y="337.2305">Order Flow (with Kafka)</text><polygon fill="#181818" points="276.5,371.2832,286.5,375.2832,276.5,379.2832,280.5,375.2832" style="stroke:#181818;stroke-width:1.0;"/><line style="stroke:#181818;stroke-width:1.0;" x1="41.5" x2="282.5" y1="375.2832" y2="375.2832"/><text fill="#000000" font-family="sans-serif" font-size="13" lengthAdjust="spacing" textLength="138" x="48.5" y="370.541">Select shop and items</text><polygon fill="#181818" points="497.5,400.5938,507.5,404.5938,497.5,408.5938,501.5,404.5938" style="stroke:#181818;stroke-width:1.0;"/><line style="stroke:#181818;stroke-width:1.0;" x1="288.5" x2="503.5" y1="404.5938" y2="404.5938"/><text fill="#000000" font-family="sans-serif" font-size="13" lengthAdjust="spacing" textLength="69" x="295.5" y="399.8516">Place order</text><polygon fill="#181818" points="1289,429.9043,1299,433.9043,1289,437.9043,1293,433.9043" style="stroke:#181818;stroke-width:1.0;"/><line style="stroke:#181818;stroke-width:1.0;" x1="509.5" x2="1295" y1="433.9043" y2="433.9043"/><text fill="#000000" font-family="sans-serif" font-size="13" lengthAdjust="spacing" textLength="215" x="516.5" y="429.1621">Publish full order request to Kafka</text><rect fill="#EEEEEE" height="3" style="stroke:#EEEEEE;stroke-width:1.0;" width="1330.5" x="0" y="462.5596"/><line style="stroke:#000000;stroke-width:1.0;" x1="0" x2="1330.5" y1="462.5596" y2="462.5596"/><line style="stroke:#000000;stroke-width:1.0;" x1="0" x2="1330.5" y1="465.5596" y2="465.5596"/><rect fill="#EEEEEE" height="23.3105" style="stroke:#000000;stroke-width:2.0;" width="245" x="542.75" y="451.9043"/><text fill="#000000" font-family="sans-serif" font-size="13" font-weight="bold" lengthAdjust="spacing" textLength="227" x="548.75" y="468.4727">Order Processing Flow (via Kafka)</text><polygon fill="#181818" points="520.5,502.5254,510.5,506.5254,520.5,510.5254,516.5,506.5254" style="stroke:#181818;stroke-width:1.0;"/><line style="stroke:#181818;stroke-width:1.0;" x1="514.5" x2="1300" y1="506.5254" y2="506.5254"/><text fill="#000000" font-family="sans-serif" font-size="13" lengthAdjust="spacing" textLength="220" x="526.5" y="501.7832">Consume order request from Kafka</text><polygon fill="#181818" points="716.5,531.8359,726.5,535.8359,716.5,539.8359,720.5,535.8359" style="stroke:#181818;stroke-width:1.0;"/><line style="stroke:#181818;stroke-width:1.0;" x1="509.5" x2="722.5" y1="535.8359" y2="535.8359"/><text fill="#000000" font-family="sans-serif" font-size="13" lengthAdjust="spacing" textLength="111" x="516.5" y="531.0938">Save order details</text><polygon fill="#181818" points="824.5,561.1465,814.5,565.1465,824.5,569.1465,820.5,565.1465" style="stroke:#181818;stroke-width:1.0;"/><line style="stroke:#181818;stroke-width:1.0;" x1="818.5" x2="1300" y1="565.1465" y2="565.1465"/><text fill="#000000" font-family="sans-serif" font-size="13" lengthAdjust="spacing" textLength="195" x="830.5" y="560.4043">Send full order request to Shop</text><polygon fill="#181818" points="977,590.457,967,594.457,977,598.457,973,594.457" style="stroke:#181818;stroke-width:1.0;"/><line style="stroke:#181818;stroke-width:1.0;" x1="971" x2="1300" y1="594.457" y2="594.457"/><text fill="#000000" font-family="sans-serif" font-size="13" lengthAdjust="spacing" textLength="311" x="983" y="589.7148">Send order request to Queue Management Service</text><line style="stroke:#181818;stroke-width:1.0;" x1="966" x2="1008" y1="623.7676" y2="623.7676"/><line style="stroke:#181818;stroke-width:1.0;" x1="1008" x2="1008" y1="623.7676" y2="636.7676"/><line style="stroke:#181818;stroke-width:1.0;" x1="967" x2="1008" y1="636.7676" y2="636.7676"/><polygon fill="#181818" points="977,632.7676,967,636.7676,977,640.7676,973,636.7676" style="stroke:#181818;stroke-width:1.0;"/><text fill="#000000" font-family="sans-serif" font-size="13" lengthAdjust="spacing" textLength="86" x="973" y="619.0254">Update queue</text><polygon fill="#181818" points="1289,662.0781,1299,666.0781,1289,670.0781,1293,666.0781" style="stroke:#181818;stroke-width:1.0;"/><line style="stroke:#181818;stroke-width:1.0;" x1="966" x2="1295" y1="666.0781" y2="666.0781"/><text fill="#000000" font-family="sans-serif" font-size="13" lengthAdjust="spacing" textLength="194" x="973" y="661.3359">Publish "Queue Updated" Event</text><polygon fill="#181818" points="824.5,691.3887,814.5,695.3887,824.5,699.3887,820.5,695.3887" style="stroke:#181818;stroke-width:1.0;"/><line style="stroke:#181818;stroke-width:1.0;" x1="818.5" x2="1300" y1="695.3887" y2="695.3887"/><text fill="#000000" font-family="sans-serif" font-size="13" lengthAdjust="spacing" textLength="180" x="830.5" y="690.6465">Notify shop of queue update</text><polygon fill="#181818" points="520.5,720.6992,510.5,724.6992,520.5,728.6992,516.5,724.6992" style="stroke:#181818;stroke-width:1.0;"/><line style="stroke:#181818;stroke-width:1.0;" x1="514.5" x2="1300" y1="724.6992" y2="724.6992"/><text fill="#000000" font-family="sans-serif" font-size="13" lengthAdjust="spacing" textLength="207" x="526.5" y="719.957">Consume "Queue Updated" Event</text><polygon fill="#181818" points="299.5,750.0098,289.5,754.0098,299.5,758.0098,295.5,754.0098" style="stroke:#181818;stroke-width:1.0;"/><line style="stroke:#181818;stroke-width:1.0;" x1="293.5" x2="508.5" y1="754.0098" y2="754.0098"/><text fill="#000000" font-family="sans-serif" font-size="13" lengthAdjust="spacing" textLength="194" x="305.5" y="749.2676">Return updated queue position</text><polygon fill="#181818" points="52.5,779.3203,42.5,783.3203,52.5,787.3203,48.5,783.3203" style="stroke:#181818;stroke-width:1.0;"/><line style="stroke:#181818;stroke-width:1.0;stroke-dasharray:2.0,2.0;" x1="46.5" x2="287.5" y1="783.3203" y2="783.3203"/><text fill="#000000" font-family="sans-serif" font-size="13" lengthAdjust="spacing" textLength="187" x="58.5" y="778.5781">Display updated queue status</text><!--SRC=[TLFRZjf037sVhx3eo-x3YcshVK6YqdAJ4BtGelq09t72Y6GcEnSGglhldLiWq9GyGEpZO_lue0zSjAYmWGppGwMa5SLSrbB1XzMBVvY-81Jb1aLL4_ncu3wp-uhbVFMy-XXpKXMaKlpJ_FFovJd4LrAOs-WVnZ0tBZ2tsiY657FT3CzvYyB0g8l2QzkE0BN_laNuCKWKyBfTmyCFtnPsf8uyfyTOi5sp0Wrcg0b6Y_Ghf1QpMwhTNhQNHlxbDltJaYNuXW8hQiX5Kfy03qcMUJbGdM63vG5zVCFOT0g_gEBQA3HSYl5NMN41grgUO3fbbmsVllZUauGbbN0dRlRGo8mxuOLjCgUGWmNqTZrnCxZTLP- -3cMAtYrfmxmi3hkOEQYJcSQAZE9q9CYxnWKPvBLcYnayTRHpAKgkcW7co7WTrbWbGDiy9wt7fIEoYkA43jCjD_5odeRcr0QDrK6aUBoWoqFOEeZuE2ZIZcfdHz3-OkWKu8OQVIFCjiQS8FYGTIfiNDXcDTTxA6rTnsmd5HWPE_Q6sIhfz-AYIdCTEVR6sa1FBsqRkcCibMmIP_yEUEo0dVI1o3ik7NHukc3900rkIzX_OF_pAOk9Q_bRw_uO1E_1kjTiJwNa-GWiHh0yEhx-jD-buUKvta6MaGfiWBC1UORvaZPzGqMA8X6sKdFlcG5VBRXkQppV5IHN_GK0]--></g></svg>