<?xml version="1.0" encoding="us-ascii" standalone="no"?><svg xmlns="http://www.w3.org/2000/svg" xmlns:xlink="http://www.w3.org/1999/xlink" contentStyleType="text/css" height="856px" preserveAspectRatio="none" style="width:978px;height:856px;background:#F5F5F5;" version="1.1" viewBox="0 0 978 856" width="978px" zoomAndPan="magnify"><defs/><g><rect fill="#F5F5F5" height="856" style="stroke:none;stroke-width:1.0;" width="978" x="0" y="0"/><line style="stroke:#34495E;stroke-width:0.5;stroke-dasharray:5.0,5.0;" x1="41" x2="41" y1="81.4883" y2="775.6309"/><line style="stroke:#34495E;stroke-width:0.5;stroke-dasharray:5.0,5.0;" x1="258.5" x2="258.5" y1="81.4883" y2="775.6309"/><line style="stroke:#34495E;stroke-width:0.5;stroke-dasharray:5.0,5.0;" x1="488" x2="488" y1="81.4883" y2="775.6309"/><line style="stroke:#34495E;stroke-width:0.5;stroke-dasharray:5.0,5.0;" x1="632.5" x2="632.5" y1="81.4883" y2="775.6309"/><line style="stroke:#34495E;stroke-width:0.5;stroke-dasharray:5.0,5.0;" x1="715.5" x2="715.5" y1="81.4883" y2="775.6309"/><line style="stroke:#34495E;stroke-width:0.5;stroke-dasharray:5.0,5.0;" x1="831.5" x2="831.5" y1="81.4883" y2="775.6309"/><line style="stroke:#34495E;stroke-width:0.5;stroke-dasharray:5.0,5.0;" x1="938.5" x2="938.5" y1="81.4883" y2="775.6309"/><text fill="#000000" font-family="sans-serif" font-size="14" lengthAdjust="spacing" textLength="67" x="5" y="78.5352">Customer</text><ellipse cx="41.5" cy="13.5" fill="#E2E2F0" rx="8" ry="8" style="stroke:#2C3E50;stroke-width:0.5;"/><path d="M41.5,21.5 L41.5,48.5 M28.5,29.5 L54.5,29.5 M41.5,48.5 L28.5,63.5 M41.5,48.5 L54.5,63.5 " fill="none" style="stroke:#2C3E50;stroke-width:0.5;"/><text fill="#000000" font-family="sans-serif" font-size="14" lengthAdjust="spacing" textLength="67" x="5" y="788.166">Customer</text><ellipse cx="41.5" cy="799.6191" fill="#E2E2F0" rx="8" ry="8" style="stroke:#2C3E50;stroke-width:0.5;"/><path d="M41.5,807.6191 L41.5,834.6191 M28.5,815.6191 L54.5,815.6191 M41.5,834.6191 L28.5,849.6191 M41.5,834.6191 L54.5,849.6191 " fill="none" style="stroke:#2C3E50;stroke-width:0.5;"/><rect fill="#ECF0F1" height="29.3105" rx="2.5" ry="2.5" style="stroke:#2C3E50;stroke-width:0.5;" width="104" x="206.5" y="51.1777"/><text fill="#2C3E50" font-family="sans-serif" font-size="13" lengthAdjust="spacing" textLength="90" x="213.5" y="70.7461">Customer App</text><rect fill="#ECF0F1" height="29.3105" rx="2.5" ry="2.5" style="stroke:#2C3E50;stroke-width:0.5;" width="104" x="206.5" y="774.6309"/><text fill="#2C3E50" font-family="sans-serif" font-size="13" lengthAdjust="spacing" textLength="90" x="213.5" y="794.1992">Customer App</text><rect fill="#ECF0F1" height="29.3105" rx="2.5" ry="2.5" style="stroke:#2C3E50;stroke-width:0.5;" width="185" x="396" y="51.1777"/><text fill="#2C3E50" font-family="sans-serif" font-size="13" lengthAdjust="spacing" textLength="171" x="403" y="70.7461">Backend API (Order service)</text><rect fill="#ECF0F1" height="29.3105" rx="2.5" ry="2.5" style="stroke:#2C3E50;stroke-width:0.5;" width="185" x="396" y="774.6309"/><text fill="#2C3E50" font-family="sans-serif" font-size="13" lengthAdjust="spacing" textLength="171" x="403" y="794.1992">Backend API (Order service)</text><rect fill="#ECF0F1" height="29.3105" rx="2.5" ry="2.5" style="stroke:#2C3E50;stroke-width:0.5;" width="72" x="596.5" y="51.1777"/><text fill="#2C3E50" font-family="sans-serif" font-size="13" lengthAdjust="spacing" textLength="58" x="603.5" y="70.7461">Database</text><rect fill="#ECF0F1" height="29.3105" rx="2.5" ry="2.5" style="stroke:#2C3E50;stroke-width:0.5;" width="72" x="596.5" y="774.6309"/><text fill="#2C3E50" font-family="sans-serif" font-size="13" lengthAdjust="spacing" textLength="58" x="603.5" y="794.1992">Database</text><rect fill="#ECF0F1" height="29.3105" rx="2.5" ry="2.5" style="stroke:#2C3E50;stroke-width:0.5;" width="74" x="678.5" y="51.1777"/><text fill="#2C3E50" font-family="sans-serif" font-size="13" lengthAdjust="spacing" textLength="60" x="685.5" y="70.7461">Shop App</text><rect fill="#ECF0F1" height="29.3105" rx="2.5" ry="2.5" style="stroke:#2C3E50;stroke-width:0.5;" width="74" x="678.5" y="774.6309"/><text fill="#2C3E50" font-family="sans-serif" font-size="13" lengthAdjust="spacing" textLength="60" x="685.5" y="794.1992">Shop App</text><rect fill="#ECF0F1" height="29.3105" rx="2.5" ry="2.5" style="stroke:#2C3E50;stroke-width:0.5;" width="138" x="762.5" y="51.1777"/><text fill="#2C3E50" font-family="sans-serif" font-size="13" lengthAdjust="spacing" textLength="124" x="769.5" y="70.7461">Queue Management</text><rect fill="#ECF0F1" height="29.3105" rx="2.5" ry="2.5" style="stroke:#2C3E50;stroke-width:0.5;" width="138" x="762.5" y="774.6309"/><text fill="#2C3E50" font-family="sans-serif" font-size="13" lengthAdjust="spacing" textLength="124" x="769.5" y="794.1992">Queue Management</text><rect fill="#ECF0F1" height="29.3105" rx="2.5" ry="2.5" style="stroke:#2C3E50;stroke-width:0.5;" width="56" x="910.5" y="51.1777"/><text fill="#2C3E50" font-family="sans-serif" font-size="13" lengthAdjust="spacing" textLength="42" x="917.5" y="70.7461">Barista</text><rect fill="#ECF0F1" height="29.3105" rx="2.5" ry="2.5" style="stroke:#2C3E50;stroke-width:0.5;" width="56" x="910.5" y="774.6309"/><text fill="#2C3E50" font-family="sans-serif" font-size="13" lengthAdjust="spacing" textLength="42" x="917.5" y="794.1992">Barista</text><rect fill="#EEEEEE" height="3" style="stroke:#EEEEEE;stroke-width:1.0;" width="971.5" x="0" y="112.1436"/><line style="stroke:#000000;stroke-width:1.0;" x1="0" x2="971.5" y1="112.1436" y2="112.1436"/><line style="stroke:#000000;stroke-width:1.0;" x1="0" x2="971.5" y1="115.1436" y2="115.1436"/><rect fill="#EEEEEE" height="23.3105" style="stroke:#000000;stroke-width:2.0;" width="132" x="419.75" y="101.4883"/><text fill="#000000" font-family="sans-serif" font-size="13" font-weight="bold" lengthAdjust="spacing" textLength="114" x="425.75" y="118.0566">Order Placement</text><polygon fill="#2C3E50" points="246.5,152.1094,256.5,156.1094,246.5,160.1094,250.5,156.1094" style="stroke:#2C3E50;stroke-width:1.0;"/><line style="stroke:#2C3E50;stroke-width:1.0;" x1="41.5" x2="252.5" y1="156.1094" y2="156.1094"/><text fill="#000000" font-family="sans-serif" font-size="13" lengthAdjust="spacing" textLength="72" x="48.5" y="151.3672">Select shop</text><polygon fill="#2C3E50" points="476.5,181.4199,486.5,185.4199,476.5,189.4199,480.5,185.4199" style="stroke:#2C3E50;stroke-width:1.0;"/><line style="stroke:#2C3E50;stroke-width:1.0;" x1="258.5" x2="482.5" y1="185.4199" y2="185.4199"/><text fill="#000000" font-family="sans-serif" font-size="13" lengthAdjust="spacing" textLength="130" x="265.5" y="180.6777">Fetch menu for shop</text><polygon fill="#2C3E50" points="620.5,210.7305,630.5,214.7305,620.5,218.7305,624.5,214.7305" style="stroke:#2C3E50;stroke-width:1.0;"/><line style="stroke:#2C3E50;stroke-width:1.0;" x1="488.5" x2="626.5" y1="214.7305" y2="214.7305"/><text fill="#000000" font-family="sans-serif" font-size="13" lengthAdjust="spacing" textLength="120" x="495.5" y="209.9883">Retrieve menu data</text><polygon fill="#2C3E50" points="499.5,240.041,489.5,244.041,499.5,248.041,495.5,244.041" style="stroke:#2C3E50;stroke-width:1.0;"/><line style="stroke:#2C3E50;stroke-width:1.0;stroke-dasharray:2.0,2.0;" x1="493.5" x2="631.5" y1="244.041" y2="244.041"/><text fill="#000000" font-family="sans-serif" font-size="13" lengthAdjust="spacing" textLength="111" x="505.5" y="239.2988">Return menu data</text><polygon fill="#2C3E50" points="269.5,269.3516,259.5,273.3516,269.5,277.3516,265.5,273.3516" style="stroke:#2C3E50;stroke-width:1.0;"/><line style="stroke:#2C3E50;stroke-width:1.0;stroke-dasharray:2.0,2.0;" x1="263.5" x2="487.5" y1="273.3516" y2="273.3516"/><text fill="#000000" font-family="sans-serif" font-size="13" lengthAdjust="spacing" textLength="80" x="275.5" y="268.6094">Return menu</text><polygon fill="#2C3E50" points="246.5,298.6621,256.5,302.6621,246.5,306.6621,250.5,302.6621" style="stroke:#2C3E50;stroke-width:1.0;"/><line style="stroke:#2C3E50;stroke-width:1.0;" x1="41.5" x2="252.5" y1="302.6621" y2="302.6621"/><text fill="#000000" font-family="sans-serif" font-size="13" lengthAdjust="spacing" textLength="193" x="48.5" y="297.9199">Select items and confirm order</text><polygon fill="#2C3E50" points="476.5,327.9727,486.5,331.9727,476.5,335.9727,480.5,331.9727" style="stroke:#2C3E50;stroke-width:1.0;"/><line style="stroke:#2C3E50;stroke-width:1.0;" x1="258.5" x2="482.5" y1="331.9727" y2="331.9727"/><text fill="#000000" font-family="sans-serif" font-size="13" lengthAdjust="spacing" textLength="69" x="265.5" y="327.2305">Place order</text><polygon fill="#2C3E50" points="620.5,357.2832,630.5,361.2832,620.5,365.2832,624.5,361.2832" style="stroke:#2C3E50;stroke-width:1.0;"/><line style="stroke:#2C3E50;stroke-width:1.0;" x1="488.5" x2="626.5" y1="361.2832" y2="361.2832"/><text fill="#000000" font-family="sans-serif" font-size="13" lengthAdjust="spacing" textLength="65" x="495.5" y="356.541">Save order</text><polygon fill="#2C3E50" points="703.5,386.5938,713.5,390.5938,703.5,394.5938,707.5,390.5938" style="stroke:#2C3E50;stroke-width:1.0;"/><line style="stroke:#2C3E50;stroke-width:1.0;" x1="488.5" x2="709.5" y1="390.5938" y2="390.5938"/><text fill="#000000" font-family="sans-serif" font-size="13" lengthAdjust="spacing" textLength="119" x="495.5" y="385.8516">Send order to shop</text><polygon fill="#2C3E50" points="926.5,415.9043,936.5,419.9043,926.5,423.9043,930.5,419.9043" style="stroke:#2C3E50;stroke-width:1.0;"/><line style="stroke:#2C3E50;stroke-width:1.0;" x1="715.5" x2="932.5" y1="419.9043" y2="419.9043"/><text fill="#000000" font-family="sans-serif" font-size="13" lengthAdjust="spacing" textLength="169" x="722.5" y="415.1621">Notify barista of new order</text><polygon fill="#2C3E50" points="819.5,445.2148,829.5,449.2148,819.5,453.2148,823.5,449.2148" style="stroke:#2C3E50;stroke-width:1.0;"/><line style="stroke:#2C3E50;stroke-width:1.0;" x1="488.5" x2="825.5" y1="449.2148" y2="449.2148"/><text fill="#000000" font-family="sans-serif" font-size="13" lengthAdjust="spacing" textLength="154" x="495.5" y="444.4727">Update queue with order</text><polygon fill="#2C3E50" points="269.5,474.5254,259.5,478.5254,269.5,482.5254,265.5,478.5254" style="stroke:#2C3E50;stroke-width:1.0;"/><line style="stroke:#2C3E50;stroke-width:1.0;" x1="263.5" x2="830.5" y1="478.5254" y2="478.5254"/><text fill="#000000" font-family="sans-serif" font-size="13" lengthAdjust="spacing" textLength="178" x="275.5" y="473.7832">Send estimated waiting time</text><polygon fill="#2C3E50" points="52.5,519.1465,42.5,523.1465,52.5,527.1465,48.5,523.1465" style="stroke:#2C3E50;stroke-width:1.0;"/><line style="stroke:#2C3E50;stroke-width:1.0;stroke-dasharray:2.0,2.0;" x1="46.5" x2="257.5" y1="523.1465" y2="523.1465"/><text fill="#000000" font-family="sans-serif" font-size="13" lengthAdjust="spacing" textLength="169" x="58.5" y="503.0938">Display order confirmation</text><text fill="#000000" font-family="sans-serif" font-size="13" lengthAdjust="spacing" textLength="151" x="58.5" y="518.4043">and estimated wait time</text><rect fill="#EEEEEE" height="3" style="stroke:#EEEEEE;stroke-width:1.0;" width="971.5" x="0" y="551.8018"/><line style="stroke:#000000;stroke-width:1.0;" x1="0" x2="971.5" y1="551.8018" y2="551.8018"/><line style="stroke:#000000;stroke-width:1.0;" x1="0" x2="971.5" y1="554.8018" y2="554.8018"/><rect fill="#EEEEEE" height="23.3105" style="stroke:#000000;stroke-width:2.0;" width="144" x="413.75" y="541.1465"/><text fill="#000000" font-family="sans-serif" font-size="13" font-weight="bold" lengthAdjust="spacing" textLength="126" x="419.75" y="557.7148">View Queue Status</text><polygon fill="#2C3E50" points="246.5,591.7676,256.5,595.7676,246.5,599.7676,250.5,595.7676" style="stroke:#2C3E50;stroke-width:1.0;"/><line style="stroke:#2C3E50;stroke-width:1.0;" x1="41.5" x2="252.5" y1="595.7676" y2="595.7676"/><text fill="#000000" font-family="sans-serif" font-size="13" lengthAdjust="spacing" textLength="148" x="48.5" y="591.0254">Request queue position</text><polygon fill="#2C3E50" points="476.5,621.0781,486.5,625.0781,476.5,629.0781,480.5,625.0781" style="stroke:#2C3E50;stroke-width:1.0;"/><line style="stroke:#2C3E50;stroke-width:1.0;" x1="258.5" x2="482.5" y1="625.0781" y2="625.0781"/><text fill="#000000" font-family="sans-serif" font-size="13" lengthAdjust="spacing" textLength="135" x="265.5" y="620.3359">Request queue status</text><polygon fill="#2C3E50" points="819.5,650.3887,829.5,654.3887,819.5,658.3887,823.5,654.3887" style="stroke:#2C3E50;stroke-width:1.0;"/><line style="stroke:#2C3E50;stroke-width:1.0;" x1="488.5" x2="825.5" y1="654.3887" y2="654.3887"/><text fill="#000000" font-family="sans-serif" font-size="13" lengthAdjust="spacing" textLength="132" x="495.5" y="649.6465">Fetch queue position</text><polygon fill="#2C3E50" points="499.5,679.6992,489.5,683.6992,499.5,687.6992,495.5,683.6992" style="stroke:#2C3E50;stroke-width:1.0;"/><line style="stroke:#2C3E50;stroke-width:1.0;" x1="493.5" x2="830.5" y1="683.6992" y2="683.6992"/><text fill="#000000" font-family="sans-serif" font-size="13" lengthAdjust="spacing" textLength="206" x="505.5" y="678.957">Return position and waiting time</text><polygon fill="#2C3E50" points="269.5,709.0098,259.5,713.0098,269.5,717.0098,265.5,713.0098" style="stroke:#2C3E50;stroke-width:1.0;"/><line style="stroke:#2C3E50;stroke-width:1.0;" x1="263.5" x2="487.5" y1="713.0098" y2="713.0098"/><text fill="#000000" font-family="sans-serif" font-size="13" lengthAdjust="spacing" textLength="206" x="275.5" y="708.2676">Return position and waiting time</text><polygon fill="#2C3E50" points="52.5,753.6309,42.5,757.6309,52.5,761.6309,48.5,757.6309" style="stroke:#2C3E50;stroke-width:1.0;"/><line style="stroke:#2C3E50;stroke-width:1.0;stroke-dasharray:2.0,2.0;" x1="46.5" x2="257.5" y1="757.6309" y2="757.6309"/><text fill="#000000" font-family="sans-serif" font-size="13" lengthAdjust="spacing" textLength="145" x="58.5" y="737.5781">Display queue position</text><text fill="#000000" font-family="sans-serif" font-size="13" lengthAdjust="spacing" textLength="105" x="58.5" y="752.8887">and waiting time</text><!--SRC=[ZLFBRjim4BppAnRffJq4iEFuK04ku2TW86dL2Ecf5qPQsqGiKY4fksdHV- -Ib19HTeBQ1rixiwFPMT8y2bbnpKjuuFdZLgjQ5dErLne-hCRkoymBm-1JZJ97-CE0FbEjrR7XNir7o_4Wb7Ehz4pf0lKfc79jHIugBkt_KFgMblFLO3Nqj1knmHiXCP8PNLz_7YzZ_1sDcVgLyg8GSWl3GLjPAMbFNJL09duZ3A_wHi_tz0YXT-IXh8do5etXMvpknLP2ZjAYPdyPuov3cDV6gf8grQiGNBHLc5RL1N3ZVcE66nbb0TDq3H-_kNXeTVeWSlmK6j9rtB3WbZzmWnvTp68mswdgvLtk8OQ_rrWZt799OvGqWAVvOXRUsVUcXR7Sivh_Z4qc46ocUvvx5PXC67kPzFABCv1GQdlCBHXdWWg-dguJMA7DTq1zDMmeju3Jy8GlPWdSeTK23nWO1GtB5ZEuRBi9hhNiWBwrVMS7VTkHi5WQu9HvhkH6w1BygOnC-jdQ-gkvZ1zwLPUnKoOrNmUhmaX-4qHeSalWgx9Yyqmtrp-3se34OopMtKG2znKDYF3aTtOKTjUGkwpEREG0ZHKbzHHmvCAwcqBFoC9an6mJIM0XJBNdputd9WTkXP8_9JzHQcHeypy4UGwdABFSrkRyxk_SZJ6syLuf8vnqb71CCLxiV0xXmFIaJaBe78wMv7SS9T7eTy_AE-GtKukzXCIYrdy0]--></g></svg>