<svg xmlns="http://www.w3.org/2000/svg" xmlns:xlink="http://www.w3.org/1999/xlink" contentStyleType="text/css" height="852px" preserveAspectRatio="none" style="width:1020px;height:852px;background:#F5F5F5;" version="1.1" viewBox="0 0 1020 852" width="1020px" zoomAndPan="magnify"><defs/><g><rect fill="#F5F5F5" height="852" style="stroke:none;stroke-width:1.0;" width="1020" x="0" y="0"/><line style="stroke:#34495E;stroke-width:0.5;stroke-dasharray:5.0,5.0;" x1="42" x2="42" y1="81.2969" y2="771.3516"/><line style="stroke:#34495E;stroke-width:0.5;stroke-dasharray:5.0,5.0;" x1="267.3291" x2="267.3291" y1="81.2969" y2="771.3516"/><line style="stroke:#34495E;stroke-width:0.5;stroke-dasharray:5.0,5.0;" x1="504.5042" x2="504.5042" y1="81.2969" y2="771.3516"/><line style="stroke:#34495E;stroke-width:0.5;stroke-dasharray:5.0,5.0;" x1="658.3242" x2="658.3242" y1="81.2969" y2="771.3516"/><line style="stroke:#34495E;stroke-width:0.5;stroke-dasharray:5.0,5.0;" x1="744.3535" x2="744.3535" y1="81.2969" y2="771.3516"/><line style="stroke:#34495E;stroke-width:0.5;stroke-dasharray:5.0,5.0;" x1="865.5796" x2="865.5796" y1="81.2969" y2="771.3516"/><line style="stroke:#34495E;stroke-width:0.5;stroke-dasharray:5.0,5.0;" x1="978.0552" x2="978.0552" y1="81.2969" y2="771.3516"/><text fill="#000000" font-family="sans-serif" font-size="14" lengthAdjust="spacing" textLength="68.0039" x="5" y="77.9951">Customer</text><ellipse cx="42.002" cy="13.5" fill="#E2E2F0" rx="8" ry="8" style="stroke:#2C3E50;stroke-width:0.5;"/><path d="M42.002,21.5 L42.002,48.5 M29.002,29.5 L55.002,29.5 M42.002,48.5 L29.002,63.5 M42.002,48.5 L55.002,63.5 " fill="none" style="stroke:#2C3E50;stroke-width:0.5;"/><text fill="#000000" font-family="sans-serif" font-size="14" lengthAdjust="spacing" textLength="68.0039" x="5" y="783.3467">Customer</text><ellipse cx="42.002" cy="795.1484" fill="#E2E2F0" rx="8" ry="8" style="stroke:#2C3E50;stroke-width:0.5;"/><path d="M42.002,803.1484 L42.002,830.1484 M29.002,811.1484 L55.002,811.1484 M42.002,830.1484 L29.002,845.1484 M42.002,830.1484 L55.002,845.1484 " fill="none" style="stroke:#2C3E50;stroke-width:0.5;"/><rect fill="#ECF0F1" height="29.1328" rx="2.5" ry="2.5" style="stroke:#2C3E50;stroke-width:0.5;" width="106.6758" x="214.3291" y="51.1641"/><text fill="#2C3E50" font-family="sans-serif" font-size="13" lengthAdjust="spacing" textLength="92.6758" x="221.3291" y="70.231">Customer App</text><rect fill="#ECF0F1" height="29.1328" rx="2.5" ry="2.5" style="stroke:#2C3E50;stroke-width:0.5;" width="106.6758" x="214.3291" y="770.3516"/><text fill="#2C3E50" font-family="sans-serif" font-size="13" lengthAdjust="spacing" textLength="92.6758" x="221.3291" y="789.4185">Customer App</text><rect fill="#ECF0F1" height="29.1328" rx="2.5" ry="2.5" style="stroke:#2C3E50;stroke-width:0.5;" width="94.7485" x="457.5042" y="51.1641"/><text fill="#2C3E50" font-family="sans-serif" font-size="13" lengthAdjust="spacing" textLength="80.7485" x="464.5042" y="70.231">Backend API</text><rect fill="#ECF0F1" height="29.1328" rx="2.5" ry="2.5" style="stroke:#2C3E50;stroke-width:0.5;" width="94.7485" x="457.5042" y="770.3516"/><text fill="#2C3E50" font-family="sans-serif" font-size="13" lengthAdjust="spacing" textLength="80.7485" x="464.5042" y="789.4185">Backend API</text><rect fill="#ECF0F1" height="29.1328" rx="2.5" ry="2.5" style="stroke:#2C3E50;stroke-width:0.5;" width="76.0293" x="620.3242" y="51.1641"/><text fill="#2C3E50" font-family="sans-serif" font-size="13" lengthAdjust="spacing" textLength="62.0293" x="627.3242" y="70.231">Database</text><rect fill="#ECF0F1" height="29.1328" rx="2.5" ry="2.5" style="stroke:#2C3E50;stroke-width:0.5;" width="76.0293" x="620.3242" y="770.3516"/><text fill="#2C3E50" font-family="sans-serif" font-size="13" lengthAdjust="spacing" textLength="62.0293" x="627.3242" y="789.4185">Database</text><rect fill="#ECF0F1" height="29.1328" rx="2.5" ry="2.5" style="stroke:#2C3E50;stroke-width:0.5;" width="76.2261" x="706.3535" y="51.1641"/><text fill="#2C3E50" font-family="sans-serif" font-size="13" lengthAdjust="spacing" textLength="62.2261" x="713.3535" y="70.231">Shop App</text><rect fill="#ECF0F1" height="29.1328" rx="2.5" ry="2.5" style="stroke:#2C3E50;stroke-width:0.5;" width="76.2261" x="706.3535" y="770.3516"/><text fill="#2C3E50" font-family="sans-serif" font-size="13" lengthAdjust="spacing" textLength="62.2261" x="713.3535" y="789.4185">Shop App</text><rect fill="#ECF0F1" height="29.1328" rx="2.5" ry="2.5" style="stroke:#2C3E50;stroke-width:0.5;" width="146.4756" x="792.5796" y="51.1641"/><text fill="#2C3E50" font-family="sans-serif" font-size="13" lengthAdjust="spacing" textLength="132.4756" x="799.5796" y="70.231">Queue Management</text><rect fill="#ECF0F1" height="29.1328" rx="2.5" ry="2.5" style="stroke:#2C3E50;stroke-width:0.5;" width="146.4756" x="792.5796" y="770.3516"/><text fill="#2C3E50" font-family="sans-serif" font-size="13" lengthAdjust="spacing" textLength="132.4756" x="799.5796" y="789.4185">Queue Management</text><rect fill="#ECF0F1" height="29.1328" rx="2.5" ry="2.5" style="stroke:#2C3E50;stroke-width:0.5;" width="59.6777" x="949.0552" y="51.1641"/><text fill="#2C3E50" font-family="sans-serif" font-size="13" lengthAdjust="spacing" textLength="45.6777" x="956.0552" y="70.231">Barista</text><rect fill="#ECF0F1" height="29.1328" rx="2.5" ry="2.5" style="stroke:#2C3E50;stroke-width:0.5;" width="59.6777" x="949.0552" y="770.3516"/><text fill="#2C3E50" font-family="sans-serif" font-size="13" lengthAdjust="spacing" textLength="45.6777" x="956.0552" y="789.4185">Barista</text><rect fill="#EEEEEE" height="3" style="stroke:#EEEEEE;stroke-width:1.0;" width="1013.7329" x="0" y="111.8633"/><line style="stroke:#000000;stroke-width:1.0;" x1="0" x2="1013.7329" y1="111.8633" y2="111.8633"/><line style="stroke:#000000;stroke-width:1.0;" x1="0" x2="1013.7329" y1="114.8633" y2="114.8633"/><rect fill="#EEEEEE" height="23.1328" style="stroke:#000000;stroke-width:2.0;" width="142.1592" x="435.7869" y="101.2969"/><text fill="#000000" font-family="sans-serif" font-size="13" font-weight="bold" lengthAdjust="spacing" textLength="123.6333" x="441.7869" y="117.3638">Order Placement</text><polygon fill="#2C3E50" points="255.667,151.5625,265.667,155.5625,255.667,159.5625,259.667,155.5625" style="stroke:#2C3E50;stroke-width:1.0;"/><line style="stroke:#2C3E50;stroke-width:1.0;" x1="42.002" x2="261.667" y1="155.5625" y2="155.5625"/><text fill="#000000" font-family="sans-serif" font-size="13" lengthAdjust="spacing" textLength="75.4546" x="49.002" y="150.4966">Select shop</text><polygon fill="#2C3E50" points="492.8784,180.6953,502.8784,184.6953,492.8784,188.6953,496.8784,184.6953" style="stroke:#2C3E50;stroke-width:1.0;"/><line style="stroke:#2C3E50;stroke-width:1.0;" x1="267.667" x2="498.8784" y1="184.6953" y2="184.6953"/><text fill="#000000" font-family="sans-serif" font-size="13" lengthAdjust="spacing" textLength="134.5894" x="274.667" y="179.6294">Fetch menu for shop</text><polygon fill="#2C3E50" points="646.3389,209.8281,656.3389,213.8281,646.3389,217.8281,650.3389,213.8281" style="stroke:#2C3E50;stroke-width:1.0;"/><line style="stroke:#2C3E50;stroke-width:1.0;" x1="504.8784" x2="652.3389" y1="213.8281" y2="213.8281"/><text fill="#000000" font-family="sans-serif" font-size="13" lengthAdjust="spacing" textLength="129.4604" x="511.8784" y="208.7622">Retrieve menu data</text><polygon fill="#2C3E50" points="515.8784,238.9609,505.8784,242.9609,515.8784,246.9609,511.8784,242.9609" style="stroke:#2C3E50;stroke-width:1.0;"/><line style="stroke:#2C3E50;stroke-width:1.0;stroke-dasharray:2.0,2.0;" x1="509.8784" x2="657.3389" y1="242.9609" y2="242.9609"/><text fill="#000000" font-family="sans-serif" font-size="13" lengthAdjust="spacing" textLength="118.6377" x="521.8784" y="237.895">Return menu data</text><polygon fill="#2C3E50" points="278.667,268.0938,268.667,272.0938,278.667,276.0938,274.667,272.0938" style="stroke:#2C3E50;stroke-width:1.0;"/><line style="stroke:#2C3E50;stroke-width:1.0;stroke-dasharray:2.0,2.0;" x1="272.667" x2="503.8784" y1="272.0938" y2="272.0938"/><text fill="#000000" font-family="sans-serif" font-size="13" lengthAdjust="spacing" textLength="85.2236" x="284.667" y="267.0278">Return menu</text><polygon fill="#2C3E50" points="255.667,297.2266,265.667,301.2266,255.667,305.2266,259.667,301.2266" style="stroke:#2C3E50;stroke-width:1.0;"/><line style="stroke:#2C3E50;stroke-width:1.0;" x1="42.002" x2="261.667" y1="301.2266" y2="301.2266"/><text fill="#000000" font-family="sans-serif" font-size="13" lengthAdjust="spacing" textLength="201.665" x="49.002" y="296.1606">Select items and confirm orderEntity</text><polygon fill="#2C3E50" points="492.8784,326.3594,502.8784,330.3594,492.8784,334.3594,496.8784,330.3594" style="stroke:#2C3E50;stroke-width:1.0;"/><line style="stroke:#2C3E50;stroke-width:1.0;" x1="267.667" x2="498.8784" y1="330.3594" y2="330.3594"/><text fill="#000000" font-family="sans-serif" font-size="13" lengthAdjust="spacing" textLength="73.5884" x="274.667" y="325.2935">Place orderEntity</text><polygon fill="#2C3E50" points="646.3389,355.4922,656.3389,359.4922,646.3389,363.4922,650.3389,359.4922" style="stroke:#2C3E50;stroke-width:1.0;"/><line style="stroke:#2C3E50;stroke-width:1.0;" x1="504.8784" x2="652.3389" y1="359.4922" y2="359.4922"/><text fill="#000000" font-family="sans-serif" font-size="13" lengthAdjust="spacing" textLength="70.9351" x="511.8784" y="354.4263">Save orderEntity</text><polygon fill="#2C3E50" points="732.4666,384.625,742.4666,388.625,732.4666,392.625,736.4666,388.625" style="stroke:#2C3E50;stroke-width:1.0;"/><line style="stroke:#2C3E50;stroke-width:1.0;" x1="504.8784" x2="738.4666" y1="388.625" y2="388.625"/><text fill="#000000" font-family="sans-serif" font-size="13" lengthAdjust="spacing" textLength="124.2998" x="511.8784" y="383.5591">Send orderEntity to shop</text><polygon fill="#2C3E50" points="966.894,413.7578,976.894,417.7578,966.894,421.7578,970.894,417.7578" style="stroke:#2C3E50;stroke-width:1.0;"/><line style="stroke:#2C3E50;stroke-width:1.0;" x1="744.4666" x2="972.894" y1="417.7578" y2="417.7578"/><text fill="#000000" font-family="sans-serif" font-size="13" lengthAdjust="spacing" textLength="174.4907" x="751.4666" y="412.6919">Notify barista of new orderEntity</text><polygon fill="#2C3E50" points="853.8174,442.8906,863.8174,446.8906,853.8174,450.8906,857.8174,446.8906" style="stroke:#2C3E50;stroke-width:1.0;"/><line style="stroke:#2C3E50;stroke-width:1.0;" x1="504.8784" x2="859.8174" y1="446.8906" y2="446.8906"/><text fill="#000000" font-family="sans-serif" font-size="13" lengthAdjust="spacing" textLength="162.6777" x="511.8784" y="441.8247">Update queue with orderEntity</text><polygon fill="#2C3E50" points="278.667,472.0234,268.667,476.0234,278.667,480.0234,274.667,476.0234" style="stroke:#2C3E50;stroke-width:1.0;"/><line style="stroke:#2C3E50;stroke-width:1.0;" x1="272.667" x2="864.8174" y1="476.0234" y2="476.0234"/><text fill="#000000" font-family="sans-serif" font-size="13" lengthAdjust="spacing" textLength="187.3765" x="284.667" y="470.9575">Send estimated waiting time</text><polygon fill="#2C3E50" points="53.002,516.2891,43.002,520.2891,53.002,524.2891,49.002,520.2891" style="stroke:#2C3E50;stroke-width:1.0;"/><line style="stroke:#2C3E50;stroke-width:1.0;stroke-dasharray:2.0,2.0;" x1="47.002" x2="266.667" y1="520.2891" y2="520.2891"/><text fill="#000000" font-family="sans-serif" font-size="13" lengthAdjust="spacing" textLength="173.4814" x="59.002" y="500.0903">Display orderEntity confirmation</text><text fill="#000000" font-family="sans-serif" font-size="13" lengthAdjust="spacing" textLength="158.9897" x="59.002" y="515.2231">and estimated wait time</text><rect fill="#EEEEEE" height="3" style="stroke:#EEEEEE;stroke-width:1.0;" width="1013.7329" x="0" y="548.8555"/><line style="stroke:#000000;stroke-width:1.0;" x1="0" x2="1013.7329" y1="548.8555" y2="548.8555"/><line style="stroke:#000000;stroke-width:1.0;" x1="0" x2="1013.7329" y1="551.8555" y2="551.8555"/><rect fill="#EEEEEE" height="23.1328" style="stroke:#000000;stroke-width:2.0;" width="157.6729" x="428.03" y="538.2891"/><text fill="#000000" font-family="sans-serif" font-size="13" font-weight="bold" lengthAdjust="spacing" textLength="139.147" x="434.03" y="554.356">View Queue Status</text><polygon fill="#2C3E50" points="255.667,588.5547,265.667,592.5547,255.667,596.5547,259.667,592.5547" style="stroke:#2C3E50;stroke-width:1.0;"/><line style="stroke:#2C3E50;stroke-width:1.0;" x1="42.002" x2="261.667" y1="592.5547" y2="592.5547"/><text fill="#000000" font-family="sans-serif" font-size="13" lengthAdjust="spacing" textLength="153.8735" x="49.002" y="587.4888">Request queue position</text><polygon fill="#2C3E50" points="492.8784,617.6875,502.8784,621.6875,492.8784,625.6875,496.8784,621.6875" style="stroke:#2C3E50;stroke-width:1.0;"/><line style="stroke:#2C3E50;stroke-width:1.0;" x1="267.667" x2="498.8784" y1="621.6875" y2="621.6875"/><text fill="#000000" font-family="sans-serif" font-size="13" lengthAdjust="spacing" textLength="142.3271" x="274.667" y="616.6216">Request queue status</text><polygon fill="#2C3E50" points="853.8174,646.8203,863.8174,650.8203,853.8174,654.8203,857.8174,650.8203" style="stroke:#2C3E50;stroke-width:1.0;"/><line style="stroke:#2C3E50;stroke-width:1.0;" x1="504.8784" x2="859.8174" y1="650.8203" y2="650.8203"/><text fill="#000000" font-family="sans-serif" font-size="13" lengthAdjust="spacing" textLength="136.4429" x="511.8784" y="645.7544">Fetch queue position</text><polygon fill="#2C3E50" points="515.8784,675.9531,505.8784,679.9531,515.8784,683.9531,511.8784,679.9531" style="stroke:#2C3E50;stroke-width:1.0;"/><line style="stroke:#2C3E50;stroke-width:1.0;" x1="509.8784" x2="864.8174" y1="679.9531" y2="679.9531"/><text fill="#000000" font-family="sans-serif" font-size="13" lengthAdjust="spacing" textLength="213.2114" x="521.8784" y="674.8872">Return position and waiting time</text><polygon fill="#2C3E50" points="278.667,705.0859,268.667,709.0859,278.667,713.0859,274.667,709.0859" style="stroke:#2C3E50;stroke-width:1.0;"/><line style="stroke:#2C3E50;stroke-width:1.0;" x1="272.667" x2="503.8784" y1="709.0859" y2="709.0859"/><text fill="#000000" font-family="sans-serif" font-size="13" lengthAdjust="spacing" textLength="213.2114" x="284.667" y="704.02">Return position and waiting time</text><polygon fill="#2C3E50" points="53.002,749.3516,43.002,753.3516,53.002,757.3516,49.002,753.3516" style="stroke:#2C3E50;stroke-width:1.0;"/><line style="stroke:#2C3E50;stroke-width:1.0;stroke-dasharray:2.0,2.0;" x1="47.002" x2="266.667" y1="753.3516" y2="753.3516"/><text fill="#000000" font-family="sans-serif" font-size="13" lengthAdjust="spacing" textLength="148.4019" x="59.002" y="733.1528">Display queue position</text><text fill="#000000" font-family="sans-serif" font-size="13" lengthAdjust="spacing" textLength="109.5034" x="59.002" y="748.2856">and waiting time</text><!--SRC=[ZLFBRjim4BppAnRfEO0TnuSAS04_0GD9gqPeJhrifBLDn28LahAR5lttaXJbYB8Jr3vOsfaTpywI-fcB2XMMy8JvyrR9MXHpkPSAFgt6xilqYQ7ffIQH4_nXO3zJfUGnS6_ce-Luq9Hp8zLCgeBKEPYYCZpd5GhpFvI-fULyDLWDFUsER-YE2ufaHhUtdyVB6Fz0OoP_fLWKN6nXE6WhAodCkQi0PFmtmV2cR_HoJu_Gz8uyb8KexqbhtD9qpxS2SXA65FlB6BeCOLvh8qjRgTw4uAgjmhIghW2r-uqPRcGI1KpJTKD8rp5XWGQVK9D75xCOp7QoEccxbnZ-NbDDS8_2sYwjOK_pnOpKWUVKzwAuDkXPuPcnoGI-kQr1kiVSgy1amjXfikilpa1YKzfJRa0x4xRWw-awWHMPV0UshuQDpQd1qxN35xC47iWeJWTg68KTbYrcSDrsMxXMeWFwrlO_E-ZxZhYXKWFQZ7CfDboLu4zXPDBFrjRVp6Luw5LTnaxPglaw6DcCv3TX2I6t1BvAmpUlzgRwTv0R47ICnRgRIE17PGSaUF4xEtAp2-GkgpERTK3QyDBs5714RjpDiE_4ciaiiqqaWGNNrHvVW-UG0neknK-1Pqf1ncx-aLlFpIdA39fQNzxzWxiXsWJlbTJSIKS9nnJjnIxdq1oOdjHP29t3qPByZgCaWdxth7n0VZUrs4kJMBVr7m00]--></g></svg>